<svg width="1280" height="720" xmlns="http://www.w3.org/2000/svg" xmlns:xlink="http://www.w3.org/1999/xlink" overflow="hidden"><defs><clipPath id="clip0"><path d="M0 0 1280 0 1280 720 0 720Z" fill-rule="evenodd" clip-rule="evenodd"/></clipPath><clipPath id="clip1"><path d="M464 137 564 137 564 237 464 237Z" fill-rule="evenodd" clip-rule="evenodd"/></clipPath><clipPath id="clip2"><path d="M464 137 564 137 564 238 464 238Z" fill-rule="evenodd" clip-rule="evenodd"/></clipPath><clipPath id="clip3"><path d="M464 137 564 137 564 238 464 238Z" fill-rule="evenodd" clip-rule="evenodd"/></clipPath><clipPath id="clip4"><path d="M228 138 328 138 328 238 228 238Z" fill-rule="evenodd" clip-rule="evenodd"/></clipPath><clipPath id="clip5"><path d="M228 138 328 138 328 239 228 239Z" fill-rule="evenodd" clip-rule="evenodd"/></clipPath><clipPath id="clip6"><path d="M228 138 328 138 328 239 228 239Z" fill-rule="evenodd" clip-rule="evenodd"/></clipPath><clipPath id="clip7"><path d="M928 135 1028 135 1028 235 928 235Z" fill-rule="evenodd" clip-rule="evenodd"/></clipPath><clipPath id="clip8"><path d="M928 135 1028 135 1028 236 928 236Z" fill-rule="evenodd" clip-rule="evenodd"/></clipPath><clipPath id="clip9"><path d="M928 135 1028 135 1028 236 928 236Z" fill-rule="evenodd" clip-rule="evenodd"/></clipPath><clipPath id="clip10"><path d="M682 135 782 135 782 235 682 235Z" fill-rule="evenodd" clip-rule="evenodd"/></clipPath><clipPath id="clip11"><path d="M682 135 782 135 782 236 682 236Z" fill-rule="evenodd" clip-rule="evenodd"/></clipPath><clipPath id="clip12"><path d="M682 135 782 135 782 236 682 236Z" fill-rule="evenodd" clip-rule="evenodd"/></clipPath><clipPath id="clip13"><path d="M228 392 328 392 328 492 228 492Z" fill-rule="evenodd" clip-rule="evenodd"/></clipPath><clipPath id="clip14"><path d="M228 392 328 392 328 492 228 492Z" fill-rule="evenodd" clip-rule="evenodd"/></clipPath><clipPath id="clip15"><path d="M228 392 328 392 328 492 228 492Z" fill-rule="evenodd" clip-rule="evenodd"/></clipPath><clipPath id="clip16"><path d="M455 391 555 391 555 491 455 491Z" fill-rule="evenodd" clip-rule="evenodd"/></clipPath><clipPath id="clip17"><path d="M455 391 555 391 555 491 455 491Z" fill-rule="evenodd" clip-rule="evenodd"/></clipPath><clipPath id="clip18"><path d="M455 391 555 391 555 491 455 491Z" fill-rule="evenodd" clip-rule="evenodd"/></clipPath><clipPath id="clip19"><path d="M692 391 792 391 792 491 692 491Z" fill-rule="evenodd" clip-rule="evenodd"/></clipPath><clipPath id="clip20"><path d="M692 391 792 391 792 491 692 491Z" fill-rule="evenodd" clip-rule="evenodd"/></clipPath><clipPath id="clip21"><path d="M692 391 792 391 792 491 692 491Z" fill-rule="evenodd" clip-rule="evenodd"/></clipPath><clipPath id="clip22"><path d="M935 391 1035 391 1035 491 935 491Z" fill-rule="evenodd" clip-rule="evenodd"/></clipPath><clipPath id="clip23"><path d="M935 391 1035 391 1035 491 935 491Z" fill-rule="evenodd" clip-rule="evenodd"/></clipPath><clipPath id="clip24"><path d="M935 391 1035 391 1035 491 935 491Z" fill-rule="evenodd" clip-rule="evenodd"/></clipPath><clipPath id="clip25"><path d="M983.445 475.034 964.375 466.628 963.311 478.631 984.284 485.292 983.445 475.034Z"/></clipPath><linearGradient x1="963.428" y1="475.59" x2="984.391" y2="475.59" gradientUnits="userSpaceOnUse" spreadMethod="pad" id="fill26"><stop offset="0" stop-color="#60B932"/><stop offset="0.28" stop-color="#60B932"/><stop offset="1" stop-color="#367C34"/></linearGradient><clipPath id="clip27"><path d="M968.109 428.606 978.817 428.606 978.817 437.742 976.275 437.742 976.275 433.853C976.275 432.299 975.016 431.039 973.461 431.039 971.907 431.039 970.648 432.299 970.648 433.853L970.648 437.742 968.106 437.742ZM965.97 448.606 981.859 455.609 980.764 442.209 982.845 442.209 982.845 437.742 981.303 437.742 981.303 428.606 982.845 428.606 982.845 425.981 974.273 417.595 974.273 417.006C974.273 416.559 973.911 416.197 973.464 416.197 973.018 416.197 972.656 416.559 972.656 417.006L972.656 417.595 964.084 425.981 964.084 428.606 965.628 428.606 965.628 437.742 964.084 437.742 964.084 442.22 966.534 442.22Z"/></clipPath><linearGradient x1="963.703" y1="437.16" x2="982.524" y2="437.16" gradientUnits="userSpaceOnUse" spreadMethod="pad" id="fill28"><stop offset="0" stop-color="#60B932"/><stop offset="0.28" stop-color="#60B932"/><stop offset="1" stop-color="#367C34"/></linearGradient><clipPath id="clip29"><path d="M965.039 459.134 982.784 466.956 982.517 463.698 965.306 456.114 965.039 459.134Z"/></clipPath><linearGradient x1="965.092" y1="461.397" x2="982.831" y2="461.397" gradientUnits="userSpaceOnUse" spreadMethod="pad" id="fill30"><stop offset="0" stop-color="#60B932"/><stop offset="0.28" stop-color="#60B932"/><stop offset="1" stop-color="#367C34"/></linearGradient><clipPath id="clip31"><path d="M964.572 464.392 983.248 472.623 982.981 469.367 964.839 461.373 964.572 464.392Z"/></clipPath><linearGradient x1="964.797" y1="466.214" x2="983.466" y2="466.214" gradientUnits="userSpaceOnUse" spreadMethod="pad" id="fill32"><stop offset="0" stop-color="#60B932"/><stop offset="0.28" stop-color="#60B932"/><stop offset="1" stop-color="#367C34"/></linearGradient><clipPath id="clip33"><path d="M965.77 450.856 965.503 453.875 982.32 461.287 982.056 458.031 965.77 450.856Z"/></clipPath><linearGradient x1="965.348" y1="456.577" x2="982.157" y2="456.577" gradientUnits="userSpaceOnUse" spreadMethod="pad" id="fill34"><stop offset="0" stop-color="#60B932"/><stop offset="0.28" stop-color="#60B932"/><stop offset="1" stop-color="#367C34"/></linearGradient><clipPath id="clip35"><path d="M1021.98 409.775C1019.54 406.857 1016.77 404.234 1013.72 401.961 1013.28 401.636 1012.83 401.322 1012.39 401.011L1006.11 407.528 983.239 431.314 1014.74 415.014 1022.82 410.847C1022.54 410.483 1022.27 410.12 1021.98 409.775Z"/></clipPath><linearGradient x1="984.244" y1="430.971" x2="1020.83" y2="403.877" gradientUnits="userSpaceOnUse" spreadMethod="pad" id="fill36"><stop offset="0" stop-color="#4596D8"/><stop offset="0.2" stop-color="#4596D8"/><stop offset="1" stop-color="#FFFFFF"/></linearGradient><clipPath id="clip37"><path d="M1033.22 440.337C1033.22 439.781 1033.18 439.225 1033.16 438.689L1024.21 438.048 983.248 435.109 1023.43 449.056 1031.88 451.987C1031.91 451.887 1031.93 451.789 1031.96 451.687 1032.8 448.093 1033.23 444.414 1033.23 440.723L1033.23 440.342Z"/></clipPath><linearGradient x1="982.909" y1="439.47" x2="1035.42" y2="450.193" gradientUnits="userSpaceOnUse" spreadMethod="pad" id="fill38"><stop offset="0" stop-color="#4194D7"/><stop offset="0.2" stop-color="#4194D7"/><stop offset="1" stop-color="#FFFFFF"/></linearGradient><clipPath id="clip39"><path d="M1031.9 429.503C1031.03 425.875 1029.74 422.36 1028.06 419.031L1019.46 421.792 983.867 433.223 1023.31 431.881 1032.34 431.573C1032.2 430.884 1032.06 430.189 1031.9 429.503Z"/></clipPath><linearGradient x1="982.211" y1="437.721" x2="1030.58" y2="428.991" gradientUnits="userSpaceOnUse" spreadMethod="pad" id="fill40"><stop offset="0" stop-color="#4194D7"/><stop offset="0.33" stop-color="#4496D8"/><stop offset="1" stop-color="#FFFFFF"/></linearGradient></defs><g clip-path="url(#clip0)"><rect x="0" y="0" width="1280" height="720" fill="#FFFFFF"/><g clip-path="url(#clip1)"><g clip-path="url(#clip2)"><g clip-path="url(#clip3)"><path d="M509.635 181.937C509.636 185.471 506.772 188.336 503.238 188.337 499.704 188.338 496.838 185.474 496.837 181.94 496.837 178.406 499.7 175.541 503.234 175.54 506.767 175.54 509.632 178.403 509.635 181.937ZM517.909 181.937C517.907 185.472 520.771 188.34 524.306 188.342 527.842 188.345 530.709 185.481 530.712 181.945 530.714 178.41 527.85 175.542 524.315 175.54 524.313 175.54 524.312 175.54 524.31 175.54 520.777 175.538 517.911 178.4 517.909 181.933 517.909 181.935 517.909 181.936 517.909 181.937Z" fill="#419EDA"/><path d="M561.474 188.88C561.01 188.917 560.552 188.933 560.06 188.933 557.243 188.931 554.464 188.284 551.936 187.042 552.759 182.297 553.125 177.485 553.03 172.67 550.294 168.704 547.179 165.012 543.729 161.648 545.256 158.771 547.518 156.349 550.283 154.628L551.486 153.882 550.547 152.822C545.823 147.466 539.985 143.208 533.442 140.347L532.141 139.781 531.81 141.153C531.036 144.321 529.436 147.226 527.172 149.573 522.896 147.301 518.407 145.452 513.771 144.052 509.141 145.449 504.659 147.295 500.389 149.564 498.134 147.221 496.54 144.323 495.77 141.163L495.434 139.786 494.136 140.35C487.602 143.223 481.767 147.478 477.033 152.821L476.095 153.881 477.296 154.626C480.052 156.338 482.307 158.747 483.835 161.609 480.395 164.963 477.286 168.641 474.55 172.591 474.439 177.436 474.796 182.281 475.616 187.057 473.101 188.288 470.34 188.929 467.54 188.932 467.044 188.932 466.576 188.916 466.123 188.879L464.713 188.768 464.844 190.177C465.532 197.29 467.778 204.165 471.423 210.312L472.139 211.532 473.214 210.617C475.706 208.507 478.715 207.099 481.932 206.536 484.026 210.815 486.525 214.884 489.394 218.688 493.983 220.299 498.718 221.463 503.532 222.164 504.012 225.427 503.606 228.759 502.355 231.811L501.817 233.119 503.197 233.424C506.676 234.197 510.228 234.59 513.791 234.596L524.381 233.424 525.763 233.119 525.228 231.811C523.975 228.756 523.569 225.419 524.054 222.153 528.848 221.452 533.563 220.292 538.135 218.688 541.008 214.882 543.508 210.809 545.602 206.525 548.834 207.083 551.859 208.494 554.364 210.61L555.44 211.521 556.157 210.311C559.802 204.165 562.046 197.29 562.729 190.177L562.86 188.769ZM528.929 206.09C519.005 208.82 508.527 208.82 498.603 206.09 493.056 197.51 489.873 187.618 489.375 177.413 492.563 173.457 496.258 169.939 500.366 166.95 504.498 163.945 509.005 161.494 513.772 159.658 518.528 161.492 523.025 163.936 527.15 166.93 531.277 169.942 534.988 173.484 538.19 177.465 537.922 182.543 536.993 187.564 535.426 192.402 533.861 197.226 531.677 201.827 528.929 206.09Z" fill="#419EDA"/></g></g></g><g clip-path="url(#clip4)"><g clip-path="url(#clip5)"><g clip-path="url(#clip6)"><path d="M239.734 202.503C240.459 203.468 241.402 204.248 242.485 204.78 243.657 205.361 244.949 205.654 246.257 205.637 247.314 205.664 248.366 205.485 249.354 205.108 250.145 204.798 250.85 204.305 251.413 203.669 251.942 203.05 252.327 202.322 252.543 201.537 252.778 200.689 252.895 199.812 252.889 198.932L252.889 195.87 252.817 195.87C252.131 196.956 251.143 197.818 249.974 198.349 248.859 198.834 247.655 199.082 246.439 199.077 245.247 199.086 244.065 198.863 242.959 198.421 241.911 198.005 240.953 197.393 240.135 196.618 239.323 195.838 238.678 194.902 238.24 193.866 237.773 192.772 237.537 191.593 237.547 190.404 237.537 189.218 237.76 188.042 238.203 186.942 238.622 185.901 239.234 184.949 240.007 184.136 240.78 183.329 241.71 182.69 242.74 182.259 243.843 181.801 245.027 181.571 246.22 181.585 246.764 181.588 247.307 181.637 247.842 181.731 248.431 181.833 249.006 182.005 249.555 182.241 250.859 182.806 251.985 183.712 252.817 184.865L252.889 184.865 252.889 182.022 255.295 182.022 255.295 198.932C255.286 199.925 255.17 200.915 254.948 201.883 254.716 202.93 254.256 203.913 253.6 204.762 252.854 205.698 251.899 206.447 250.812 206.949 249.622 207.532 248.067 207.823 246.148 207.823 244.589 207.85 243.04 207.565 241.592 206.985 240.207 206.392 238.965 205.51 237.948 204.398ZM240.171 190.331C240.165 191.2 240.332 192.061 240.663 192.864 240.978 193.634 241.436 194.339 242.011 194.941 242.583 195.538 243.263 196.02 244.016 196.362 244.799 196.719 245.651 196.899 246.512 196.891 248.217 196.897 249.859 196.252 251.104 195.087 251.715 194.51 252.194 193.808 252.507 193.028 252.844 192.17 252.999 191.252 252.962 190.331 252.968 189.468 252.82 188.61 252.525 187.798 252.244 187.027 251.81 186.32 251.249 185.721 250.673 185.114 249.978 184.63 249.209 184.3 248.356 183.938 247.438 183.758 246.512 183.772 245.651 183.764 244.799 183.944 244.016 184.3 243.264 184.643 242.584 185.125 242.011 185.721 241.436 186.323 240.979 187.028 240.663 187.798 240.332 188.602 240.165 189.463 240.171 190.331Z" fill="#244B5A"/><path d="M265.097 199.077 262.474 199.077 262.474 173.276 270.418 173.276C273.042 173.276 275.113 173.847 276.631 174.989 278.149 176.131 278.909 177.856 278.909 180.164 278.955 181.839 278.348 183.466 277.215 184.701 276.085 185.928 274.451 186.638 272.313 186.833L279.747 199.077 276.54 199.077 269.47 187.088 265.097 187.088ZM265.097 184.682 269.762 184.682C270.764 184.704 271.764 184.581 272.732 184.318 273.439 184.129 274.102 183.801 274.682 183.352 275.149 182.976 275.513 182.487 275.738 181.931 275.96 181.368 276.071 180.768 276.066 180.164 276.069 179.571 275.958 178.983 275.738 178.433 275.51 177.873 275.147 177.379 274.682 176.993 274.108 176.536 273.443 176.207 272.732 176.027 271.762 175.778 270.763 175.661 269.762 175.681L265.097 175.681Z" fill="#244B5A"/><path d="M284.266 173.276 291.773 173.276C294.397 173.276 296.468 173.847 297.986 174.989 299.504 176.131 300.263 177.856 300.264 180.164 300.264 182.472 299.505 184.203 297.986 185.357 296.468 186.511 294.397 187.088 291.773 187.088L286.89 187.088 286.89 199.077 284.266 199.077ZM286.89 184.682 291.117 184.682C292.119 184.704 293.12 184.581 294.087 184.318 294.795 184.129 295.457 183.8 296.037 183.352 296.504 182.976 296.868 182.487 297.093 181.931 297.315 181.368 297.427 180.768 297.421 180.164 297.424 179.571 297.313 178.983 297.093 178.433 296.865 177.873 296.502 177.379 296.037 176.993 295.463 176.536 294.798 176.207 294.087 176.027 293.117 175.778 292.118 175.661 291.117 175.681L286.89 175.681Z" fill="#244B5A"/><path d="M326.611 194.996C326.149 195.68 325.605 196.304 324.99 196.854 324.324 197.453 323.583 197.961 322.785 198.367 321.933 198.801 321.034 199.138 320.106 199.369 319.111 199.616 318.089 199.738 317.063 199.733 315.234 199.75 313.419 199.403 311.725 198.713 308.494 197.407 305.934 194.841 304.636 191.607 303.276 188.114 303.276 184.239 304.636 180.747 305.934 177.512 308.493 174.946 311.725 173.641 313.419 172.95 315.234 172.603 317.063 172.62 318.712 172.629 320.345 172.95 321.874 173.568 323.505 174.22 324.928 175.303 325.992 176.702L323.696 178.414C323.388 177.955 323.02 177.538 322.602 177.175 322.12 176.748 321.588 176.381 321.017 176.082 320.408 175.761 319.767 175.505 319.104 175.317 318.441 175.125 317.754 175.027 317.063 175.025 315.533 175 314.015 175.311 312.617 175.936 311.35 176.512 310.214 177.343 309.283 178.378 308.361 179.416 307.65 180.622 307.187 181.931 306.216 184.678 306.216 187.675 307.187 190.422 307.65 191.731 308.361 192.937 309.283 193.975 310.214 195.011 311.349 195.842 312.617 196.417 314.015 197.042 315.532 197.353 317.063 197.328 317.742 197.328 318.418 197.267 319.086 197.146 319.765 197.021 320.426 196.813 321.054 196.526 321.716 196.223 322.33 195.824 322.876 195.342 323.49 194.794 324.023 194.162 324.461 193.465Z" fill="#244B5A"/><path d="M229.039 168.183 228.919 169.243 228.919 168.183 229.039 168.183Z" fill="#75CACA"/><path d="M229.198 168.183 228.919 170.644 228.919 169.243 229.039 168.183 229.198 168.183Z" fill="#74CBCA"/><path d="M229.356 168.183 228.919 172.045 228.919 170.644 229.198 168.183 229.356 168.183Z" fill="#74CBCA"/><path d="M229.514 168.183 228.919 173.446 228.919 172.045 229.356 168.183 229.514 168.183Z" fill="#73CBCA"/><path d="M229.672 168.183 228.919 174.847 228.919 173.446 229.514 168.183 229.672 168.183Z" fill="#73CBCA"/><path d="M229.831 168.183 228.919 176.248 228.919 174.847 229.672 168.183 229.831 168.183Z" fill="#72C9C9"/><path d="M229.989 168.183 228.919 177.649 228.919 176.248 229.831 168.183 229.989 168.183Z" fill="#72C9C9"/><path d="M230.147 168.183 228.919 179.049 228.919 177.649 229.989 168.183 230.147 168.183Z" fill="#70CACA"/><path d="M230.305 168.183 228.919 180.45 228.919 179.049 230.147 168.183 230.305 168.183Z" fill="#70CACA"/><path d="M230.464 168.183 228.935 181.715 228.919 181.713 228.919 180.45 230.305 168.183 230.464 168.183Z" fill="#6FCAC8"/><path d="M230.622 168.183 229.092 181.723 229.008 181.723 228.935 181.715 230.464 168.183 230.622 168.183Z" fill="#6EC8C8"/><path d="M230.78 168.183 229.25 181.723 229.092 181.723 230.622 168.183 230.78 168.183Z" fill="#6EC8C8"/><path d="M230.939 168.183 229.409 181.723 229.25 181.723 230.78 168.183 230.939 168.183Z" fill="#6CC9C9"/><path d="M231.097 168.183 229.567 181.723 229.409 181.723 230.939 168.183 231.097 168.183Z" fill="#6DC9C8"/><path d="M231.255 168.183 229.725 181.723 229.567 181.723 231.097 168.183 231.255 168.183Z" fill="#69C7C8"/><path d="M231.413 168.183 229.883 181.723 229.725 181.723 231.255 168.183 231.413 168.183Z" fill="#69C7C8"/><path d="M231.572 168.183 230.042 181.723 229.883 181.723 231.413 168.183 231.572 168.183Z" fill="#69C8C7"/><path d="M231.73 168.183 230.2 181.723 230.042 181.723 231.572 168.183 231.73 168.183Z" fill="#68C8C7"/><path d="M231.888 168.183 230.358 181.723 230.2 181.723 231.73 168.183 231.888 168.183Z" fill="#67C7C7"/><path d="M232.046 168.183 230.517 181.723 230.358 181.723 231.888 168.183 232.046 168.183Z" fill="#65C7C7"/><path d="M232.205 168.183 230.675 181.723 230.517 181.723 232.046 168.183 232.205 168.183Z" fill="#64C7C7"/><path d="M232.363 168.183 230.833 181.723 230.675 181.723 232.205 168.183 232.363 168.183Z" fill="#63C6C6"/><path d="M232.521 168.183 230.992 181.723 230.833 181.723 232.363 168.183 232.521 168.183Z" fill="#60C6C6"/><path d="M232.679 168.183 231.15 181.723 230.992 181.723 232.521 168.183 232.679 168.183Z" fill="#60C6C5"/><path d="M232.838 168.183 231.308 181.723 231.15 181.723 232.679 168.183 232.838 168.183Z" fill="#5FC6C5"/><path d="M232.996 168.183 231.466 181.723 231.308 181.723 232.838 168.183 232.996 168.183Z" fill="#5CC5C4"/><path d="M233.154 168.183 231.625 181.723 231.466 181.723 232.996 168.183 233.154 168.183Z" fill="#5AC5C4"/><path d="M233.313 168.183 231.783 181.723 231.625 181.723 233.154 168.183 233.313 168.183Z" fill="#5AC5C4"/><path d="M233.471 168.183 231.941 181.723 231.783 181.723 233.313 168.183 233.471 168.183Z" fill="#57C4C4"/><path d="M233.629 168.183 232.099 181.723 231.941 181.723 233.471 168.183 233.629 168.183Z" fill="#58C4C3"/><path d="M233.788 168.183 232.258 181.723 232.099 181.723 233.629 168.183 233.788 168.183Z" fill="#55C4C3"/><path d="M233.946 168.183 232.416 181.723 232.258 181.723 233.788 168.183 233.946 168.183Z" fill="#53C3C2"/><path d="M234.104 168.183 232.574 181.723 232.416 181.723 233.946 168.183 234.104 168.183Z" fill="#52C3C2"/><path d="M234.263 168.183 232.733 181.723 232.574 181.723 234.104 168.183 234.263 168.183Z" fill="#50C3C2"/><path d="M234.421 168.183 232.891 181.723 232.733 181.723 234.263 168.183 234.421 168.183Z" fill="#50C1C0"/><path d="M234.579 168.183 233.049 181.723 232.891 181.723 234.421 168.183 234.579 168.183Z" fill="#4BC2C0"/><path d="M234.738 168.183 233.208 181.723 233.049 181.723 234.579 168.183 234.738 168.183Z" fill="#4CC1C0"/><path d="M234.896 168.183 233.366 181.723 233.208 181.723 234.738 168.183 234.896 168.183Z" fill="#47C1BE"/><path d="M235.054 168.183 233.524 181.723 233.366 181.723 234.896 168.183 235.054 168.183Z" fill="#46C0BE"/><path d="M235.212 168.183 233.682 181.723 233.524 181.723 235.054 168.183 235.212 168.183Z" fill="#43C0BE"/><path d="M235.371 168.183 233.841 181.723 233.682 181.723 235.212 168.183 235.371 168.183Z" fill="#40BFBD"/><path d="M235.529 168.183 233.999 181.723 233.841 181.723 235.371 168.183 235.529 168.183Z" fill="#3BBFBD"/><path d="M235.687 168.183 234.157 181.723 233.999 181.723 235.529 168.183 235.687 168.183Z" fill="#39BFBC"/><path d="M235.845 168.183 234.315 181.723 234.157 181.723 235.687 168.183 235.845 168.183Z" fill="#34BEBD"/><path d="M236.004 168.183 234.474 181.723 234.315 181.723 235.845 168.183 236.004 168.183Z" fill="#32BEBB"/><path d="M236.162 168.183 234.632 181.723 234.474 181.723 236.004 168.183 236.162 168.183Z" fill="#2DBDBB"/><path d="M236.32 168.183 234.79 181.723 234.632 181.723 236.162 168.183 236.32 168.183Z" fill="#24BCBB"/><path d="M236.479 168.183 234.948 181.723 234.79 181.723 236.32 168.183 236.479 168.183Z" fill="#21BCB9"/><path d="M236.637 168.183 235.107 181.723 234.948 181.723 236.479 168.183 236.637 168.183Z" fill="#18BBB9"/><path d="M236.795 168.183 235.265 181.723 235.107 181.723 236.637 168.183 236.795 168.183Z" fill="#0FBAB9"/><path d="M236.953 168.183 235.423 181.723 235.265 181.723 236.795 168.183 236.953 168.183Z" fill="#03BBB8"/><path d="M237.112 168.183 235.582 181.723 235.423 181.723 236.953 168.183 237.112 168.183Z" fill="#06B8B6"/><path d="M237.27 168.183 235.74 181.723 235.582 181.723 237.112 168.183 237.27 168.183Z" fill="#06B8B6"/><path d="M237.428 168.183 235.898 181.723 235.74 181.723 237.27 168.183 237.428 168.183Z" fill="#03B7B5"/><path d="M237.586 168.183 236.057 181.723 235.898 181.723 237.428 168.183 237.586 168.183Z" fill="#04B7B4"/><path d="M237.745 168.183 236.215 181.723 236.057 181.723 237.586 168.183 237.745 168.183Z" fill="#00B6B5"/><path d="M237.903 168.183 236.373 181.723 236.215 181.723 237.745 168.183 237.903 168.183Z" fill="#03B6B4"/><path d="M238.061 168.183 236.531 181.723 236.373 181.723 237.903 168.183 238.061 168.183Z" fill="#05B6B2"/><path d="M238.219 168.183 236.69 181.723 236.531 181.723 238.061 168.183 238.219 168.183Z" fill="#01B5B1"/><path d="M238.378 168.183 236.848 181.723 236.69 181.723 238.219 168.183 238.378 168.183Z" fill="#01B5B1"/><path d="M238.536 168.183 237.006 181.723 236.848 181.723 238.378 168.183 238.536 168.183Z" fill="#00B4B1"/><path d="M238.694 168.183 237.165 181.723 237.006 181.723 238.536 168.183 238.694 168.183Z" fill="#00B3B0"/><path d="M238.853 168.183 237.323 181.723 237.165 181.723 238.694 168.183 238.853 168.183Z" fill="#00B3B0"/><path d="M239.011 168.183 237.481 181.723 237.323 181.723 238.853 168.183 239.011 168.183Z" fill="#00B2AF"/><path d="M239.169 168.183 237.639 181.723 237.481 181.723 239.011 168.183 239.169 168.183Z" fill="#00B2AE"/><path d="M239.328 168.183 237.798 181.723 237.639 181.723 239.169 168.183 239.328 168.183Z" fill="#00B1AE"/><path d="M239.486 168.183 237.956 181.723 237.798 181.723 239.328 168.183 239.486 168.183Z" fill="#00B1AD"/><path d="M239.644 168.183 238.114 181.723 237.956 181.723 239.486 168.183 239.644 168.183Z" fill="#00B0AC"/><path d="M239.803 168.183 238.273 181.723 238.114 181.723 239.644 168.183 239.803 168.183Z" fill="#00AFAC"/><path d="M242.371 168.183 242.459 168.193 242.459 181.723 238.273 181.723 239.803 168.183 242.371 168.183Z" fill="#00AFAC"/><path d="M258.161 173.222 258.053 170.902 258.161 170.902 258.161 173.222Z" fill="#75CACA"/><path d="M258.161 175.659 257.94 170.902 258.053 170.902 258.161 173.222 258.161 175.659Z" fill="#74CBCA"/><path d="M258.161 178.097 257.826 170.902 257.94 170.902 258.161 175.659 258.161 178.097Z" fill="#74CBCA"/><path d="M258.083 178.844 257.713 170.902 257.826 170.902 258.161 178.097 258.161 178.844 258.083 178.844Z" fill="#73CBCA"/><path d="M257.969 178.844 257.599 170.902 257.713 170.902 258.083 178.844 257.969 178.844Z" fill="#72C9C9"/><path d="M257.856 178.844 257.486 170.902 257.599 170.902 257.969 178.844 257.856 178.844Z" fill="#72C9C9"/><path d="M257.742 178.844 257.372 170.902 257.486 170.902 257.856 178.844 257.742 178.844Z" fill="#70CACA"/><path d="M257.629 178.844 257.259 170.902 257.372 170.902 257.742 178.844 257.629 178.844Z" fill="#6FCAC8"/><path d="M257.515 178.844 257.145 170.902 257.259 170.902 257.629 178.844 257.515 178.844Z" fill="#6EC8C8"/><path d="M257.401 178.844 257.032 170.902 257.145 170.902 257.515 178.844 257.401 178.844Z" fill="#6EC8C8"/><path d="M257.288 178.844 256.918 170.902 257.032 170.902 257.401 178.844 257.288 178.844Z" fill="#6CC9C9"/><path d="M257.174 178.844 256.804 170.902 256.918 170.902 257.288 178.844 257.174 178.844Z" fill="#6DC9C8"/><path d="M257.061 178.844 256.691 170.902 256.804 170.902 257.174 178.844 257.061 178.844Z" fill="#69C7C8"/><path d="M256.947 178.844 256.578 170.902 256.691 170.902 257.061 178.844 256.947 178.844Z" fill="#69C7C8"/><path d="M256.834 178.844 256.464 170.902 256.578 170.902 256.947 178.844 256.834 178.844Z" fill="#69C8C7"/><path d="M256.72 178.844 256.35 170.902 256.464 170.902 256.834 178.844 256.72 178.844Z" fill="#68C8C7"/><path d="M256.607 178.844 256.237 170.902 256.35 170.902 256.72 178.844 256.607 178.844Z" fill="#67C7C7"/><path d="M256.493 178.844 256.123 170.902 256.237 170.902 256.607 178.844 256.493 178.844Z" fill="#65C7C7"/><path d="M256.38 178.844 256.01 170.902 256.123 170.902 256.493 178.844 256.38 178.844Z" fill="#64C7C7"/><path d="M256.266 178.844 255.896 170.902 256.01 170.902 256.38 178.844 256.266 178.844Z" fill="#63C6C6"/><path d="M256.152 178.844 255.783 170.902 255.896 170.902 256.266 178.844 256.152 178.844Z" fill="#60C6C6"/><path d="M256.039 178.844 255.669 170.902 255.783 170.902 256.152 178.844 256.039 178.844Z" fill="#60C6C5"/><path d="M255.926 178.844 255.556 170.902 255.669 170.902 256.039 178.844 255.926 178.844Z" fill="#5FC6C5"/><path d="M255.812 178.844 255.442 170.902 255.556 170.902 255.926 178.844 255.812 178.844Z" fill="#5FC6C5"/><path d="M255.699 178.844 255.329 170.902 255.442 170.902 255.812 178.844 255.699 178.844Z" fill="#5CC5C4"/><path d="M255.585 178.844 255.215 170.902 255.329 170.902 255.699 178.844 255.585 178.844Z" fill="#5AC5C4"/><path d="M255.471 178.844 255.102 170.902 255.215 170.902 255.585 178.844 255.471 178.844Z" fill="#5AC5C4"/><path d="M255.358 178.844 254.988 170.902 255.102 170.902 255.471 178.844 255.358 178.844Z" fill="#57C4C4"/><path d="M255.244 178.844 254.874 170.902 254.988 170.902 255.358 178.844 255.244 178.844Z" fill="#58C4C3"/><path d="M255.131 178.844 254.761 170.902 254.874 170.902 255.244 178.844 255.131 178.844Z" fill="#55C4C3"/><path d="M255.017 178.844 254.648 170.902 254.761 170.902 255.131 178.844 255.017 178.844Z" fill="#53C3C2"/><path d="M254.904 178.844 254.534 170.902 254.648 170.902 255.017 178.844 254.904 178.844Z" fill="#53C3C2"/><path d="M254.79 178.844 254.42 170.902 254.534 170.902 254.904 178.844 254.79 178.844Z" fill="#52C3C2"/><path d="M254.677 178.844 254.307 170.902 254.42 170.902 254.79 178.844 254.677 178.844Z" fill="#50C3C2"/><path d="M254.563 178.844 254.193 170.902 254.307 170.902 254.677 178.844 254.563 178.844Z" fill="#50C1C0"/><path d="M254.45 178.844 254.08 170.902 254.193 170.902 254.563 178.844 254.45 178.844Z" fill="#4DC2C1"/><path d="M254.336 178.844 253.966 170.902 254.08 170.902 254.45 178.844 254.336 178.844Z" fill="#4CC2C0"/><path d="M254.223 178.844 253.853 170.902 253.966 170.902 254.336 178.844 254.223 178.844Z" fill="#4BC0BF"/><path d="M254.109 178.844 253.739 170.902 253.853 170.902 254.223 178.844 254.109 178.844Z" fill="#47C1BE"/><path d="M253.996 178.844 253.626 170.902 253.739 170.902 254.109 178.844 253.996 178.844Z" fill="#46C0BE"/><path d="M253.882 178.844 253.512 170.902 253.626 170.902 253.996 178.844 253.882 178.844Z" fill="#43C0BE"/><path d="M253.769 178.844 253.399 170.902 253.512 170.902 253.882 178.844 253.769 178.844Z" fill="#41C0BE"/><path d="M253.655 178.844 253.285 170.902 253.399 170.902 253.769 178.844 253.655 178.844Z" fill="#40BFBD"/><path d="M253.541 178.844 253.172 170.902 253.285 170.902 253.655 178.844 253.541 178.844Z" fill="#3BBFBD"/><path d="M253.428 178.844 253.058 170.902 253.172 170.902 253.541 178.844 253.428 178.844Z" fill="#3CBFBC"/><path d="M253.314 178.844 252.944 170.902 253.058 170.902 253.428 178.844 253.314 178.844Z" fill="#39BFBC"/><path d="M253.201 178.844 252.831 170.902 252.944 170.902 253.314 178.844 253.201 178.844Z" fill="#34BEBD"/><path d="M253.087 178.844 252.718 170.902 252.831 170.902 253.201 178.844 253.087 178.844Z" fill="#32BEBB"/><path d="M252.974 178.844 252.604 170.902 252.718 170.902 253.087 178.844 252.974 178.844Z" fill="#2FBEBC"/><path d="M252.86 178.844 252.49 170.902 252.604 170.902 252.974 178.844 252.86 178.844Z" fill="#2DBDBB"/><path d="M252.747 178.844 252.377 170.902 252.49 170.902 252.86 178.844 252.747 178.844Z" fill="#2BBDBA"/><path d="M252.633 178.844 252.263 170.902 252.377 170.902 252.747 178.844 252.633 178.844Z" fill="#24BCBB"/><path d="M252.52 178.844 252.149 170.902 252.263 170.902 252.633 178.844 252.52 178.844Z" fill="#21BCB9"/><path d="M252.406 178.844 252.036 170.902 252.149 170.902 252.52 178.844 252.406 178.844Z" fill="#18BBB9"/><path d="M252.293 178.844 251.923 170.902 252.036 170.902 252.406 178.844 252.293 178.844Z" fill="#16BAB9"/><path d="M252.179 178.844 251.809 170.902 251.923 170.902 252.293 178.844 252.179 178.844Z" fill="#11BAB7"/><path d="M252.066 178.844 251.696 170.902 251.809 170.902 252.179 178.844 252.066 178.844Z" fill="#03BBB8"/><path d="M251.952 178.844 251.582 170.902 251.696 170.902 252.066 178.844 251.952 178.844Z" fill="#06B8B6"/><path d="M251.839 178.844 251.469 170.902 251.582 170.902 251.952 178.844 251.839 178.844Z" fill="#06B8B6"/><path d="M251.725 178.844 251.355 170.902 251.469 170.902 251.839 178.844 251.725 178.844Z" fill="#06B8B6"/><path d="M251.611 178.844 251.242 170.902 251.355 170.902 251.725 178.844 251.611 178.844Z" fill="#00B7B6"/><path d="M251.498 178.844 251.128 170.902 251.242 170.902 251.611 178.844 251.498 178.844Z" fill="#03B7B5"/><path d="M251.384 178.844 251.014 170.902 251.128 170.902 251.498 178.844 251.384 178.844Z" fill="#04B7B4"/><path d="M251.271 178.844 250.901 170.902 251.014 170.902 251.384 178.844 251.271 178.844Z" fill="#00B6B5"/><path d="M251.157 178.844 250.787 170.902 250.901 170.902 251.271 178.844 251.157 178.844Z" fill="#00B6B5"/><path d="M251.044 178.844 250.674 170.902 250.787 170.902 251.157 178.844 251.044 178.844Z" fill="#00B6B5"/><path d="M250.93 178.844 250.56 170.902 250.674 170.902 251.044 178.844 250.93 178.844Z" fill="#03B6B4"/><path d="M250.817 178.844 250.447 170.902 250.56 170.902 250.93 178.844 250.817 178.844Z" fill="#03B6B4"/><path d="M250.703 178.844 250.333 170.902 250.447 170.902 250.817 178.844 250.703 178.844Z" fill="#05B6B2"/><path d="M250.59 178.844 250.219 170.902 250.333 170.902 250.703 178.844 250.59 178.844Z" fill="#01B5B1"/><path d="M250.476 178.844 250.219 173.33 250.219 170.902 250.219 170.902 250.59 178.844 250.476 178.844Z" fill="#01B5B1"/><path d="M250.363 178.844 250.219 175.767 250.219 173.33 250.476 178.844 250.363 178.844Z" fill="#01B5B1"/><path d="M250.249 178.844 250.219 178.205 250.219 175.767 250.363 178.844 250.249 178.844Z" fill="#00B4B1"/><path d="M250.219 178.205 250.249 178.844 250.219 178.844 250.219 178.205Z" fill="#00B4B1"/><path d="M235.962 170.86 231.878 174.975 235.992 179.059 239.474 179.047 235.823 175.425 253.849 175.359 252.269 176.949 254.01 176.943 256.053 174.885 253.995 172.843 252.254 172.849 253.846 174.428 235.82 174.495 239.443 170.847 235.962 170.86Z" fill="#244B5A"/></g></g></g><g clip-path="url(#clip7)"><g clip-path="url(#clip8)"><g clip-path="url(#clip9)"><path d="M956.337 224.494C954.91 224.82 950.709 227.104 947.08 227.797 943.45 228.491 940.31 228.857 939.21 229.265 938.11 229.673 937.252 230.489 939.413 231.305 941.574 232.12 952.055 232.405 952.993 231.305 953.931 230.203 952.346 229.726 950.057 229.755 948.426 229.775 948.626 229.207 948.629 229.143 948.629 229.143 948.731 228.429 951.239 228.083 953.743 227.737 964.819 226.696 964.616 225.513 964.412 224.331 957.764 224.168 956.337 224.494ZM951.271 232.76C951.345 233.101 950.455 233.584 949.284 233.839 948.112 234.094 947.102 234.024 947.028 233.683 946.952 233.342 947.841 232.859 949.013 232.603 949.014 232.603 949.014 232.603 949.015 232.603 950.187 232.348 951.197 232.418 951.271 232.759ZM946.4 232.755C946.424 233.092 945.427 233.445 944.172 233.545 942.916 233.645 941.876 233.453 941.847 233.117 941.821 232.78 942.818 232.426 944.075 232.326 945.332 232.226 946.373 232.418 946.4 232.755 946.4 232.755 946.4 232.755 946.4 232.755ZM941.622 232.23C941.656 232.492 941.007 232.797 940.171 232.911 939.335 233.025 938.629 232.905 938.591 232.643 938.555 232.38 939.204 232.075 940.041 231.961 940.878 231.847 941.585 231.968 941.621 232.23ZM938.602 231.765C938.634 231.976 938.005 232.243 937.198 232.361 937.197 232.361 937.196 232.361 937.195 232.361 936.387 232.478 935.708 232.402 935.677 232.19 935.677 232.19 935.677 232.19 935.677 232.19 935.645 231.979 936.274 231.712 937.081 231.594 937.082 231.594 937.083 231.594 937.084 231.594 937.892 231.477 938.571 231.553 938.602 231.765 938.602 231.765 938.602 231.765 938.602 231.765ZM937.93 230.929C937.962 231.14 937.333 231.407 936.525 231.525 936.524 231.525 936.523 231.525 936.522 231.525 935.714 231.642 935.035 231.566 935.004 231.354 935.004 231.354 935.004 231.354 935.004 231.354 934.972 231.143 935.601 230.876 936.408 230.758 936.409 230.758 936.41 230.758 936.411 230.758 937.219 230.641 937.899 230.717 937.93 230.928 937.93 230.929 937.93 230.929 937.93 230.929ZM937.563 230.011C937.589 230.195 937.041 230.427 936.339 230.529 935.638 230.631 935.047 230.565 935.019 230.381 934.992 230.197 935.54 229.965 936.242 229.863 936.943 229.761 937.534 229.827 937.562 230.011ZM978.114 225.636C975.626 225.758 969.999 225.473 969.224 226.778 968.449 228.083 971.508 228.572 976.32 228.164 981.132 227.757 987.942 227.226 988.228 225.758 988.513 224.29 986.964 224.576 986.8 223.638 986.637 222.7 988.513 222.7 988.88 221.313 989.247 219.927 986.352 220.09 983.783 220.09 981.213 220.09 976.931 220.334 976.523 221.68 976.116 223.026 978.481 223.026 980.153 223.352 981.825 223.678 981.336 224.29 981.336 224.29 981.254 225.147 980.602 225.514 978.114 225.636ZM973.618 229.214C973.62 229.602 972.656 229.917 971.465 229.918 971.464 229.918 971.463 229.918 971.462 229.918 970.271 229.918 969.306 229.604 969.305 229.215 969.305 229.215 969.305 229.214 969.305 229.214 969.305 228.826 970.27 228.511 971.461 228.511 971.461 228.511 971.462 228.511 971.462 228.511 972.653 228.511 973.618 228.826 973.618 229.214ZM978.45 229.062C978.45 229.416 977.807 229.704 977.013 229.704 976.219 229.704 975.575 229.417 975.575 229.062 975.574 228.707 976.217 228.42 977.011 228.419 977.011 228.419 977.012 228.419 977.013 228.419 977.807 228.419 978.451 228.706 978.451 229.061 978.451 229.061 978.451 229.062 978.451 229.062ZM983.069 228.603C983.069 228.89 982.364 229.123 981.494 229.123 980.624 229.123 979.919 228.89 979.919 228.603 979.919 228.316 980.624 228.083 981.494 228.083 982.364 228.083 983.069 228.316 983.069 228.603ZM986.097 228.022C986.097 228.326 985.583 228.572 984.95 228.572 984.317 228.572 983.803 228.326 983.803 228.022 983.803 227.718 984.317 227.472 984.95 227.472 985.583 227.472 986.097 227.718 986.097 228.022ZM989.094 227.395C989.094 227.69 988.574 227.93 987.932 227.93 987.29 227.93 986.77 227.69 986.77 227.395 986.769 227.1 987.288 226.86 987.93 226.859 987.931 226.859 987.931 226.859 987.932 226.859 988.574 226.859 989.094 227.099 989.094 227.394 989.094 227.394 989.094 227.395 989.094 227.395ZM937.22 212.357C937.22 213.052 938.737 213.71 941.431 214.295 941.239 212.9 941.358 211.492 941.537 210.396 938.777 210.986 937.22 211.652 937.22 212.356ZM1016.71 210.555C1016.39 211.455 1015.86 212.266 1015.17 212.923 1013.95 214.075 1012.88 214.766 1011.93 215.018 1017.2 214.278 1020.32 213.356 1020.32 212.357 1020.32 211.715 1019.03 211.105 1016.71 210.555Z" fill="#231F20"/><path d="M1007.71 209.093C1007.37 206.639 1006.33 205.538 1005.4 204.566 1004.54 203.662 1003.73 202.807 1003.99 201.239 1004.23 199.789 1005.39 198.896 1007.27 198.664 1006.13 190.926 1004.45 181.163 1002.29 172.834 1001.21 168.674 999.511 165.786 997.227 163.864 994.613 165.202 991.468 166.672 987.958 168.194 985.428 169.29 982.879 170.342 980.313 171.351 978.308 173.501 976.117 175.621 974.775 176.226 973.819 176.656 972.97 176.826 972.232 176.826 970.634 176.826 969.555 176.026 969.032 175.312 968.427 175.472 967.943 175.576 967.614 175.611 967.221 175.652 966.641 175.701 965.916 175.754 966.194 176.484 966.083 177.337 965.549 177.981 964.961 178.689 964.014 179.045 962.672 179.045 960.741 179.045 957.991 178.308 954.314 176.823 953.818 176.622 953.321 176.427 952.821 176.237 952.539 176.239 952.258 176.24 951.976 176.24L951.974 176.24C948.461 176.24 945.716 176.13 943.564 175.953 941.207 180.833 942.232 186.243 943.094 190.713 943.921 194.998 946.789 202.62 949.45 209.169 950.437 211.599 951.395 213.88 952.21 215.789 959.412 216.426 968.646 216.809 978.715 216.809 990.697 216.809 1001.49 216.266 1009.09 215.399 1008.54 213.119 1007.83 209.949 1007.71 209.142L1007.71 209.092ZM948.353 188.235C948.353 183.63 952.086 179.896 956.692 179.896 961.297 179.896 965.031 183.63 965.031 188.235 965.031 192.84 961.297 196.574 956.692 196.574 952.086 196.574 948.353 192.84 948.353 188.235ZM970.627 205.889C968.871 206.412 968.237 204.392 968.049 203.515L968.086 203.492C968.906 202.979 969.853 202.393 970.922 201.982 971.049 202.321 971.241 202.89 971.358 203.492 971.554 204.507 971.536 205.618 970.628 205.889ZM973.482 205.175C973.046 205.011 972.716 204.285 972.48 203.492 972.28 202.82 972.146 202.098 972.072 201.63 972.28 201.582 972.49 201.544 972.702 201.516 972.808 201.502 973.032 201.486 973.505 201.486 973.936 201.486 974.459 201.499 975.013 201.513L975.503 201.526C975.547 201.905 975.6 202.455 975.661 203.259 975.667 203.34 975.669 203.417 975.671 203.492 975.696 205.501 973.941 205.347 973.482 205.175ZM980.989 200.104C980.139 200.484 978.889 200.645 976.806 200.645 976.099 200.645 975.371 200.626 974.728 200.61 974.221 200.595 973.713 200.585 973.206 200.582 972.804 200.582 972.511 200.594 972.334 200.617 970.367 200.876 968.744 201.893 967.439 202.711 967.058 202.949 966.698 203.175 966.361 203.361 965.821 203.66 965.157 203.818 964.442 203.818 963.122 203.818 961.879 203.299 961.118 202.43 960.487 201.708 960.222 200.808 960.353 199.826 960.746 196.873 964.963 195.368 965.442 195.206L966.214 194.946C966.188 194.871 966.168 194.794 966.155 194.716 965.927 193.341 967.722 191.898 970.165 191.492 970.274 191.474 970.383 191.459 970.491 191.446 972.513 191.194 974.288 191.759 974.841 192.788L975.783 192.796C977.928 192.814 979.698 193.102 981.043 193.652 982.397 194.205 983.226 195.009 983.377 195.916 983.681 197.735 982.787 199.3 980.989 200.104ZM982.534 190.564C977.928 190.564 974.195 186.831 974.195 182.225 974.195 177.619 977.928 173.886 982.534 173.886 987.139 173.936 990.832 177.711 990.781 182.316 990.732 186.85 987.068 190.513 982.534 190.563Z" fill="#67CFE3"/><path d="M993.214 154.129 993.152 154.02 993.07 153.916C992.992 153.792 992.687 153.6 992.663 153.598L992.632 153.581 992.616 153.573 992.556 153.547 992.551 153.545 992.541 153.541 992.456 153.511 992.286 153.453C992.173 153.411 992.046 153.397 991.924 153.372 991.801 153.35 991.671 153.351 991.544 153.342 991.415 153.346 991.287 153.357 991.159 153.374 990.674 153.465 990.222 153.684 989.85 154.007 989.5 154.302 989.239 154.639 989.026 154.973 988.659 155.569 988.384 156.217 988.209 156.895 988.084 157.36 988.002 157.835 987.962 158.315 987.944 158.487 987.946 158.625 987.942 158.718 987.94 158.811 987.943 158.861 987.943 158.861L988.204 158.387C988.37 158.089 988.603 157.665 988.889 157.177 989.179 156.693 989.523 156.138 989.941 155.635 990.151 155.385 990.381 155.153 990.624 154.973 990.868 154.796 991.118 154.674 991.368 154.634 991.43 154.626 991.493 154.62 991.556 154.614 991.621 154.622 991.684 154.614 991.75 154.626 991.816 154.643 991.881 154.642 991.95 154.664L992.11 154.707 992.16 154.73 992.153 154.724 992.162 154.725 992.167 154.733 992.174 154.737 992.189 154.743 992.182 154.743C992.179 154.742 992.175 154.741 992.172 154.739 992.18 154.744 992.187 154.756 992.194 154.772 992.228 154.834 992.254 154.956 992.266 155.09 992.281 155.368 992.248 155.69 992.196 155.993 992.146 156.299 992.08 156.596 992.016 156.871 991.886 157.421 991.762 157.891 991.68 158.222 991.594 158.553 991.55 158.749 991.55 158.749 991.55 158.749 991.692 158.608 991.907 158.336 992.124 158.065 992.416 157.664 992.707 157.139 992.85 156.876 992.995 156.582 993.123 156.251 993.248 155.919 993.363 155.553 993.399 155.108 993.421 154.851 993.39 154.591 993.31 154.346 993.286 154.27 993.254 154.198 993.214 154.129Z"/><path d="M992.167 154.733 992.16 154.73C992.163 154.733 992.165 154.737 992.169 154.738L992.172 154.739 992.17 154.738 992.167 154.733Z"/><path d="M941.495 170.065 941.61 170.065C941.571 169.997 941.533 169.928 941.495 169.859L941.495 170.065ZM942.517 166.833C942.763 167.327 943.024 167.698 943.22 167.948 943.314 168.075 943.4 168.167 943.455 168.231 943.512 168.295 943.545 168.327 943.545 168.327 943.545 168.327 943.512 168.147 943.449 167.842 943.389 167.537 943.299 167.106 943.217 166.604 943.177 166.354 943.14 166.084 943.121 165.812 943.106 165.544 943.106 165.258 943.165 165.048 943.184 164.966 943.22 164.889 943.27 164.821 943.303 164.788 943.343 164.765 943.388 164.753L943.428 164.746 943.491 164.733C943.509 164.73 943.486 164.743 943.484 164.745 943.478 164.748 943.47 164.75 943.463 164.75 943.459 164.75 943.456 164.75 943.453 164.748L943.46 164.752C943.472 164.758 943.482 164.758 943.495 164.76 943.557 164.783 943.651 164.833 943.749 164.907 943.955 165.057 944.167 165.287 944.371 165.522 944.572 165.762 944.77 166.015 944.957 166.267 945.329 166.774 945.674 167.27 945.977 167.695 946.279 168.121 946.541 168.478 946.732 168.725 946.921 168.975 947.038 169.115 947.038 169.115L947.024 168.985C947.01 168.902 946.997 168.776 946.964 168.623 946.764 167.589 946.41 166.592 945.914 165.663 945.746 165.346 945.556 165.042 945.344 164.753 945.109 164.425 944.829 164.131 944.511 163.882 944.309 163.732 944.084 163.617 943.844 163.542 943.771 163.525 943.697 163.511 943.623 163.5L943.567 163.493 943.492 163.492C943.396 163.493 943.299 163.501 943.204 163.516L943.142 163.533 943.079 163.55 942.996 163.574 942.972 163.584 942.924 163.607C942.653 163.721 942.425 163.918 942.272 164.169 942.126 164.413 942.069 164.659 942.048 164.876 942.007 165.316 942.093 165.669 942.18 165.99 942.268 166.28 942.381 166.562 942.517 166.833Z" fill="#231F20"/><path d="M946.362 218.058C948.317 218.058 949.694 216.994 950.66 215.613 949.029 211.837 947.478 208.026 946.01 204.183 945.543 204.58 945.004 205.18 944.42 206.085 942.967 208.337 941.77 213.578 943.277 216.345 943.906 217.498 944.915 218.058 946.362 218.058ZM1015.38 205.073C1014.23 202.108 1011.8 200.003 1009.45 199.954L1009.37 199.947C1009.36 199.947 1008.91 199.879 1008.31 199.879 1007.03 199.879 1005.47 200.151 1005.25 201.449 1005.1 202.349 1005.49 202.809 1006.33 203.686 1007.28 204.686 1008.58 206.057 1008.97 208.92 1009.42 212.198 1010.22 213.861 1011.35 213.861 1011.88 213.861 1012.84 213.545 1014.44 212.036 1016.4 210.178 1016.21 207.221 1015.38 205.073Z" fill="#DFCAA3"/><path d="M958.57 191.164C958.57 192.617 957.393 193.794 955.94 193.794 954.488 193.793 953.311 192.616 953.311 191.164 953.312 189.712 954.489 188.535 955.941 188.535 957.393 188.536 958.57 189.713 958.57 191.165ZM984.037 185.004C984.037 186.457 982.859 187.634 981.407 187.634 979.955 187.633 978.778 186.456 978.778 185.004 978.779 183.552 979.956 182.375 981.408 182.375 982.86 182.376 984.037 183.553 984.037 185.005Z" fill="#231F20"/><path d="M948.808 161.79C950.86 162.345 953.18 162.625 955.703 162.625 959.758 162.625 968.367 161.838 980.468 156.562L980.74 156.442C980.703 155.773 980.76 155.102 980.907 154.449 981.175 153.229 981.707 152.195 982.359 151.509 982.233 151.042 982.129 150.699 982.058 150.526 980.661 149.782 969.15 145.494 963.146 145.494 962.546 145.494 962.023 145.538 961.59 145.627 956.269 146.713 948.184 155.962 947.894 157.274 947.807 157.841 947.834 159.622 947.897 161.545L948.808 161.791ZM948.704 174.926C948.414 174.866 948.251 174.846 948.184 174.841 947.056 174.907 946.055 174.121 945.852 173.009 945.833 172.897 945.822 172.783 945.82 172.669 945.216 173.011 944.612 173.381 944.047 173.772L943.042 174.468 942.302 173.494C941.477 172.385 940.741 171.212 940.102 169.986 938.322 170.826 936.93 171.746 936.59 172.616 936.526 172.781 936.552 172.869 936.619 172.967 936.909 173.393 938.634 174.694 948.704 174.927ZM969.615 172.075C970.481 171.524 971.611 171.634 972.355 172.34 972.467 172.322 972.658 172.274 972.94 172.147 974.042 171.623 978.019 167.378 981.04 163.743 981.149 163.612 981.27 163.498 981.4 163.399 974.495 166.382 964.849 169.642 955.664 169.642 954.187 169.642 952.786 169.556 951.484 169.388L951.686 169.982 950.538 170.422C950.529 170.425 950.332 170.502 950.001 170.638 951.48 170.984 953.479 171.663 955.989 172.677 960.584 174.532 962.341 174.603 962.781 174.577 963.413 174.245 964.166 174.234 964.807 174.549 965.699 174.495 966.59 174.425 967.48 174.339 967.853 174.288 968.221 174.212 968.584 174.112 968.529 173.296 968.924 172.514 969.614 172.075ZM996.36 158.43C996.025 160.424 995.382 162.613 994.955 163.21L994.555 163.77C996.178 162.986 997.779 162.156 999.355 161.281 1004.13 158.607 1004.72 157.435 1004.79 157.14 1004.83 156.946 1004.78 156.887 1004.76 156.861 1004.71 156.796 1004.38 156.471 1002.87 156.471 1001.22 156.471 998.919 156.848 996.513 157.37 996.471 157.713 996.42 158.066 996.359 158.43ZM994.5 163.797 993.812 163.741C992.817 163.671 991.82 163.636 990.823 163.638 989.043 163.638 986.698 163.746 984.773 164.202 985.153 164.99 985.038 165.928 984.479 166.601 984.008 167.169 983.211 168.115 982.256 169.201 983.949 168.514 985.696 167.782 987.45 167.022 990.021 165.907 992.392 164.822 994.5 163.797Z" fill="#648C1A"/><path d="M980.978 157.733C976.143 159.841 965.548 163.903 955.703 163.903 953.211 163.903 950.766 163.643 948.475 163.024 948.715 163.386 948.951 163.772 949.185 164.184 949.88 165.421 950.487 166.706 951 168.029 952.19 168.215 953.744 168.365 955.665 168.365 961.32 168.365 970.159 167.07 982.288 161.611 982.478 161.013 982.732 160.264 983.046 159.431 983.022 159.433 982.997 159.437 982.973 159.437 982.843 159.437 982.715 159.423 982.59 159.396 981.837 159.23 981.28 158.616 980.98 157.733Z" fill="#DFCAA3"/><path d="M941.61 170.065C942.483 171.62 943.32 172.722 943.32 172.722 946.25 170.693 950.08 169.228 950.08 169.228 950.08 169.228 949.982 168.939 949.798 168.468 949.568 167.877 949.319 167.293 949.051 166.718 948.909 166.413 948.761 166.109 948.609 165.809 948.524 165.642 948.438 165.477 948.349 165.312 948.054 164.762 947.725 164.202 947.368 163.666 946.192 161.903 944.701 160.403 943.032 160.403 942.506 160.403 941.962 160.553 941.404 160.89 938.337 162.744 939.92 166.99 941.495 169.859L941.61 170.065ZM942.048 164.876C942.068 164.658 942.126 164.413 942.272 164.169 942.425 163.918 942.653 163.721 942.924 163.607L942.972 163.585 942.996 163.575 943.079 163.55 943.142 163.533 943.204 163.516C943.299 163.501 943.395 163.493 943.491 163.492L943.567 163.492 943.623 163.5C943.697 163.512 943.773 163.526 943.844 163.543 944.116 163.624 944.327 163.751 944.511 163.882 944.865 164.154 945.12 164.452 945.344 164.754 945.568 165.054 945.752 165.362 945.915 165.664 946.411 166.592 946.765 167.59 946.965 168.623 946.997 168.776 947.01 168.902 947.024 168.985L947.038 169.115C947.038 169.115 946.921 168.975 946.732 168.725 946.474 168.386 946.222 168.043 945.977 167.695 945.674 167.27 945.329 166.775 944.957 166.267 944.769 166.013 944.574 165.764 944.371 165.522 944.167 165.288 943.955 165.056 943.749 164.907 943.671 164.847 943.586 164.797 943.495 164.76 943.482 164.758 943.472 164.758 943.46 164.752L943.452 164.748C943.455 164.749 943.459 164.75 943.462 164.75 943.47 164.75 943.477 164.749 943.484 164.745 943.486 164.743 943.509 164.73 943.491 164.733L943.427 164.746 943.388 164.753C943.343 164.765 943.303 164.788 943.27 164.821 943.22 164.889 943.184 164.966 943.165 165.048 943.106 165.258 943.106 165.544 943.121 165.812 943.14 166.084 943.177 166.353 943.217 166.604 943.299 167.106 943.39 167.537 943.449 167.842 943.512 168.147 943.545 168.327 943.545 168.327 943.545 168.327 943.512 168.295 943.455 168.231 943.4 168.167 943.314 168.075 943.22 167.948 942.949 167.601 942.713 167.227 942.517 166.833 942.381 166.562 942.268 166.28 942.18 165.99 942.093 165.669 942.007 165.316 942.048 164.876ZM943.033 159.764 943.033 160.404Z" fill="#67CFE3"/><path d="M984.125 150.623C984.255 150.623 984.383 150.636 984.508 150.664 985.446 150.87 986.079 151.773 986.293 153.024 988.08 150.514 990.029 149.244 992.113 149.244 992.991 149.244 993.762 149.452 994.408 149.852 995.021 149.109 995.621 148.356 996.207 147.592 995.381 147.742 993.653 147.968 993.653 147.968 1000.19 145.564 999.663 139.028 999.663 139.028 999.663 140.155 996.282 142.86 996.282 142.86 996.432 141.883 995.906 140.606 995.906 140.606 996.056 141.883 992 145.19 992 145.19 992.3 144.589 992.075 143.537 992.075 143.537 991.85 144.739 990.047 145.19 990.047 145.19 991.174 143.838 993.277 136.7 991.699 136.25 990.122 135.8 987.943 140.908 987.943 140.908 987.868 139.706 987.192 139.706 987.192 139.706 987.492 143.462 984.488 146.466 984.488 146.466 984.262 145.716 983.06 145.34 983.06 145.34 983.446 146.176 983.007 149.982 982.872 151.061 983.27 150.78 983.697 150.624 984.125 150.624Z" fill="#DFCAA3"/><path d="M982.52 157.93C982.52 157.932 982.523 157.934 982.524 157.935 982.555 157.969 982.588 158 982.624 158.029 982.637 158.039 982.65 158.046 982.663 158.055 982.688 158.072 982.713 158.09 982.738 158.103 982.801 158.136 982.871 158.155 982.942 158.159 982.985 158.161 983.028 158.159 983.072 158.152 983.27 158.122 983.486 157.999 983.702 157.797 983.901 157.335 984.113 156.864 984.342 156.39 984.552 155.956 984.764 155.54 984.979 155.145 985.299 153.447 984.869 152.051 984.234 151.912 984.198 151.904 984.162 151.9 984.125 151.9 983.473 151.9 982.525 153.035 982.155 154.724 981.885 155.949 982.01 157.039 982.327 157.648L982.329 157.65C982.386 157.76 982.45 157.854 982.519 157.93Z"/><path d="M992.162 154.725 992.153 154.724 992.16 154.73 992.167 154.733 992.162 154.725ZM992.189 154.743 992.174 154.737 992.167 154.733 992.17 154.738 992.172 154.739C992.175 154.741 992.179 154.742 992.182 154.743L992.189 154.743Z" fill="#67CFE3"/><path d="M992.113 150.523C988.392 150.523 985.655 156.123 984.224 159.928 983.846 160.933 983.507 161.951 983.206 162.981 983.386 163.017 983.562 163.078 983.731 163.16 985.899 162.511 988.704 162.36 990.823 162.36 992.616 162.36 993.916 162.467 993.916 162.467 994.479 161.678 997.746 150.523 992.113 150.523ZM993.399 155.108C993.363 155.553 993.248 155.918 993.123 156.251 993.004 156.556 992.865 156.853 992.706 157.139 992.416 157.664 992.124 158.065 991.907 158.336 991.692 158.608 991.549 158.749 991.549 158.749 991.549 158.749 991.594 158.553 991.679 158.222 991.762 157.89 991.886 157.422 992.016 156.871 992.08 156.596 992.146 156.299 992.196 155.993 992.252 155.695 992.276 155.393 992.266 155.09 992.261 154.981 992.237 154.873 992.194 154.772 992.187 154.756 992.18 154.744 992.172 154.739L992.169 154.739C992.165 154.737 992.163 154.733 992.159 154.73L992.109 154.707 991.949 154.664C991.881 154.642 991.816 154.643 991.75 154.626 991.684 154.615 991.621 154.622 991.556 154.615 991.493 154.62 991.431 154.627 991.368 154.634 991.118 154.674 990.868 154.796 990.624 154.974 990.381 155.154 990.151 155.386 989.941 155.635 989.523 156.138 989.178 156.693 988.889 157.178 988.603 157.665 988.37 158.088 988.204 158.388L987.944 158.861C987.944 158.861 987.94 158.811 987.942 158.718 987.946 158.625 987.944 158.487 987.962 158.315 987.989 157.968 988.055 157.475 988.209 156.895 988.366 156.317 988.603 155.646 989.026 154.973 989.239 154.639 989.501 154.302 989.85 154.007 990.222 153.684 990.674 153.465 991.159 153.374 991.286 153.356 991.416 153.347 991.544 153.343 991.671 153.351 991.801 153.35 991.924 153.372 992.045 153.397 992.174 153.412 992.286 153.453L992.456 153.511 992.541 153.541 992.551 153.545 992.556 153.547 992.616 153.573 992.632 153.581 992.663 153.598C992.687 153.6 992.993 153.792 993.07 153.916L993.152 154.02 993.214 154.129C993.258 154.203 993.287 154.275 993.31 154.346 993.406 154.633 993.413 154.883 993.399 155.108Z" fill="#67CFE3"/><path d="M972.232 175.475C972.84 175.475 973.509 175.312 974.22 174.992 975.703 174.325 979.321 170.692 983.44 165.736 983.59 165.556 983.662 165.323 983.64 165.09 983.619 164.857 983.506 164.641 983.325 164.492 982.95 164.18 982.393 164.231 982.081 164.605 982.081 164.606 982.08 164.606 982.08 164.607 980.287 166.764 975.254 172.545 973.52 173.369L973.495 173.38C973.157 173.532 972.845 173.632 972.565 173.675L971.906 173.779 971.423 173.319C971.129 173.039 970.682 172.996 970.34 173.215 970.142 173.34 970.002 173.54 969.952 173.769 969.901 173.998 969.943 174.238 970.07 174.436 970.137 174.542 970.773 175.475 972.232 175.475ZM963.83 175.669C963.685 175.669 963.542 175.704 963.414 175.772L963.154 175.909 962.861 175.927C962.791 175.931 962.72 175.933 962.65 175.933 961.825 175.933 959.796 175.673 955.482 173.93 950.726 172.01 948.842 171.722 948.142 171.722 948.008 171.722 947.93 171.733 947.894 171.739 947.663 171.781 947.459 171.913 947.326 172.106 947.192 172.298 947.141 172.536 947.183 172.766 947.265 173.203 947.656 173.512 948.1 173.492L948.198 173.485 948.296 173.494C948.82 173.537 950.506 173.827 954.821 175.569 958.309 176.979 960.951 177.692 962.672 177.692 963.574 177.692 964.192 177.499 964.509 177.117 964.659 176.937 964.731 176.704 964.709 176.471 964.688 176.237 964.574 176.022 964.393 175.873 964.235 175.741 964.035 175.668 963.829 175.669Z"/><path d="M975.772 194.068C975.772 194.068 975.522 196.985 971.417 197.59 970.641 197.705 969.973 197.755 969.398 197.755 967.214 197.755 966.354 197.035 965.848 196.411 965.848 196.411 961.914 197.741 961.614 199.994 961.389 201.679 963.012 202.545 964.442 202.545 964.925 202.545 965.385 202.447 965.745 202.248 967.173 201.459 969.314 199.731 972.169 199.356 972.513 199.32 972.86 199.304 973.206 199.31 974.183 199.31 975.516 199.373 976.806 199.373 978.274 199.373 979.689 199.291 980.47 198.943 982.235 198.153 982.235 196.801 982.123 196.125 981.998 195.375 980.204 194.105 975.773 194.068Z" fill="#DFCAA3"/><path d="M970.99 196.47 971.136 196.444 971.296 196.413C973.431 195.973 975.002 194.74 975.019 193.505 975.022 193.255 974.961 193.008 974.841 192.788 974.288 191.759 972.513 191.194 970.491 191.446 970.382 191.459 970.273 191.474 970.164 191.492 967.722 191.898 965.927 193.341 966.155 194.715 966.168 194.794 966.188 194.871 966.214 194.945 966.634 196.175 968.688 196.852 970.991 196.47Z" fill="#231F20"/></g></g></g><g clip-path="url(#clip10)"><g clip-path="url(#clip11)"><g clip-path="url(#clip12)"><path d="M731.983 136.636C758.762 136.642 780.742 158.346 780.708 184.748 780.674 211.552 758.784 232.955 731.423 232.935 704.673 232.917 683.046 211.191 683.065 184.357 683.083 158.117 705.109 136.631 731.983 136.637ZM717.18 153.534C717.794 156.539 717.198 159.341 716.29 162.097 715.661 164.005 714.792 165.843 714.274 167.777 713.419 170.964 712.448 174.17 712.093 177.43 711.581 182.117 713.434 186.246 716.605 190.352L702.029 187.3C702.055 187.758 702.028 187.931 702.078 188.078 703.459 192.113 705.891 195.512 708.616 198.716 708.904 199.056 709.561 199.229 710.046 199.23 724.58 199.257 739.113 199.255 753.646 199.237 754.096 199.236 754.698 199.151 754.975 198.862 758.089 195.607 760.471 191.899 761.96 187.229L746.53 190.232C747.548 188.249 748.71 186.505 749.378 184.59 751.663 178.035 750.716 171.698 747.437 165.722 744.805 160.925 742.377 156.15 743.691 150.37 740.911 153.098 739.844 156.571 739.167 160.15 738.5 163.676 738.107 167.253 737.591 170.83 737.517 170.722 737.422 170.643 737.407 170.55 737.347 170.174 737.292 169.796 737.271 169.417 736.958 163.558 735.806 157.913 733.377 152.522 731.947 149.348 730.37 146.104 731.844 142.318 730.847 142.841 729.944 143.361 729.299 144.103 727.369 146.318 726.572 148.978 726.367 151.891 726.191 154.38 725.951 156.88 725.487 159.327 724.999 161.899 724.226 164.419 722.487 166.783 721.786 161.734 721.707 156.741 717.18 153.533ZM754.652 203.656 709.07 203.656 709.07 211.528 754.652 211.528 754.652 203.656ZM718.108 215.594C718.07 222.149 724.786 227.033 733.087 226.678 739.965 226.384 746.053 221.005 745.53 215.594L718.108 215.594Z" fill="#E75225"/></g></g></g><g clip-path="url(#clip13)"><g clip-path="url(#clip14)"><g clip-path="url(#clip15)"><path d="M311.02 443.24 294.65 471.18 261.69 471.18 245.23 442.91 256.16 422.59 239.7 422.59 228.7 443.04 253.44 485.75 302.91 485.75 327.55 443.24Z" fill="#0979B9"/><path d="M302.91 398.3 252.73 398.3 244.98 412.88 270.23 412.88 270.23 461.46 284.81 461.46 284.81 412.88 294.65 412.88 305.78 433.52 322.22 433.52Z" fill="#2592C0"/></g></g></g><g clip-path="url(#clip16)"><g clip-path="url(#clip17)"><g clip-path="url(#clip18)"><path d="M504.583 392.84 551.354 392.84 551.354 430.757 504.584 430.757 504.584 392.84Z" fill="#34A574"/><path d="M457.813 392.84 504.583 392.84 504.583 430.757 457.813 430.757 457.813 392.84Z" fill="#27AAE1"/><path d="M504.583 430.792 551.354 430.792 551.354 468.708 504.584 468.708 504.584 430.792Z" fill="#8DC63F"/><path d="M457.813 430.792 504.583 430.792 504.583 468.708 457.813 468.708 457.813 430.792Z" fill="#375C93"/><path d="M497.708 468.5 520.59 489.68 520.59 468.5Z" fill="#8DC63F"/><path d="M504.583 468.5 504.826 475.167 497.5 468.327Z" fill="#375C93"/><path d="M523.958 441.868 523.958 410.48 535.138 410.48 535.138 451.07 518.195 451.07 483.995 419.126 483.995 451.106 472.777 451.106 472.777 410.478 490.312 410.478 523.957 441.868Z" fill="#FFFFFF"/></g></g></g><g clip-path="url(#clip19)"><g clip-path="url(#clip20)"><g clip-path="url(#clip21)"><path d="M741.901 397.267 778.215 414.607 787.188 453.578 762.062 484.834 721.758 484.838 696.626 453.588 705.59 414.616Z" fill="#FFFFFF"/><path d="M741.564 393.061C740.69 393.105 739.834 393.322 739.044 393.699L704.646 410.134C702.873 410.981 701.525 412.657 701.087 414.559L692.603 451.476C692.168 453.413 692.633 455.443 693.869 456.996L717.677 486.598C718.904 488.124 720.851 489.053 722.819 489.053L760.999 489.043C762.965 489.045 764.913 488.117 766.141 486.593L789.941 456.988C791.175 455.433 791.642 453.405 791.211 451.467L782.714 414.55C782.276 412.646 780.928 410.97 779.155 410.124L744.755 393.698C743.761 393.225 742.665 393.005 741.565 393.06Z" fill="#326CE5"/><path d="M741.838 452.57C742.132 452.56 742.424 452.623 742.688 452.752 743.048 452.925 743.327 453.198 743.502 453.525L743.542 453.525 748.781 462.992C748.101 463.22 747.401 463.415 746.687 463.577 742.68 464.487 738.686 464.212 735.069 462.979L740.295 453.529 740.304 453.529C740.609 452.96 741.193 452.595 741.838 452.571ZM732.86 448.212C733.862 448.228 734.662 449.053 734.647 450.055 734.643 450.291 734.593 450.525 734.5 450.742L734.532 450.781 730.415 460.731C726.462 458.201 723.454 454.438 721.859 450.024L732.486 448.221 732.504 448.243C732.624 448.221 732.744 448.209 732.86 448.212ZM750.866 448.168C751.006 448.16 751.146 448.173 751.283 448.198L751.301 448.177 762.022 449.989C760.439 454.437 757.419 458.231 753.439 460.771L749.278 450.72 749.291 450.702C748.894 449.78 749.32 448.711 750.242 448.315 750.439 448.229 750.651 448.18 750.866 448.169ZM740.246 439.361 743.559 439.361 745.618 441.934 744.878 445.145 741.904 446.575 738.922 445.141 738.183 441.931 740.247 439.361ZM760.046 431.574C761.279 433.574 762.175 435.763 762.699 438.054 763.234 440.384 763.369 442.709 763.148 444.956L752.731 441.956 752.722 441.912C751.755 441.647 751.186 440.649 751.451 439.682 751.545 439.337 751.739 439.028 752.009 438.793L752.006 438.771 760.046 431.574ZM723.706 431.57 731.791 438.802 731.782 438.846C732.539 439.502 732.621 440.647 731.965 441.403 731.729 441.676 731.418 441.872 731.07 441.966L731.06 442 720.697 444.991C720.181 440.307 721.24 435.586 723.707 431.571ZM744.486 421.593C749.139 422.17 753.473 424.259 756.822 427.54L748.024 433.778 747.993 433.765C747.183 434.357 746.047 434.18 745.455 433.371 745.244 433.082 745.123 432.737 745.107 432.379L745.098 432.375 744.487 421.593ZM739.326 421.593 738.716 432.393 738.671 432.415C738.629 433.416 737.784 434.193 736.783 434.152 736.425 434.137 736.079 434.016 735.79 433.805L735.772 433.815 726.917 427.537C729.736 424.766 733.274 422.839 737.131 421.972 737.865 421.805 738.597 421.682 739.327 421.592ZM741.904 405.624C740.768 405.624 739.846 406.649 739.846 407.912 739.846 407.932 739.85 407.95 739.851 407.969 739.849 408.14 739.841 408.347 739.846 408.497 739.873 409.225 740.032 409.783 740.128 410.455 740.301 411.891 740.446 413.082 740.357 414.189 740.269 414.607 739.962 414.989 739.688 415.254L739.639 416.124C738.404 416.227 737.16 416.414 735.918 416.697 730.768 417.861 726.084 420.537 722.466 424.382 722.238 424.227 721.84 423.942 721.722 423.854 721.354 423.904 720.983 424.017 720.499 423.735 719.579 423.115 718.739 422.259 717.724 421.228 717.258 420.735 716.922 420.265 716.368 419.789 716.243 419.681 716.052 419.536 715.911 419.424 715.503 419.095 715 418.906 714.477 418.884 713.844 418.861 713.235 419.109 712.836 419.609 712.127 420.499 712.354 421.857 713.342 422.645L713.372 422.667C713.508 422.777 713.675 422.917 713.8 423.01 714.386 423.443 714.922 423.665 715.506 424.009 716.737 424.769 717.758 425.4 718.568 426.16 718.884 426.497 718.94 427.09 718.981 427.348L719.641 427.937C716.109 433.252 714.474 439.819 715.441 446.509L714.578 446.76C714.351 447.053 714.03 447.515 713.694 447.653 712.634 447.986 711.442 448.109 710.004 448.26 709.327 448.316 708.744 448.282 708.028 448.419 707.87 448.449 707.65 448.505 707.478 448.546L707.46 448.55 707.43 448.559C706.216 448.852 705.436 449.968 705.687 451.066 705.938 452.166 707.124 452.834 708.345 452.571L708.375 452.567C708.389 452.563 708.401 452.557 708.415 452.554 708.585 452.516 708.798 452.474 708.948 452.434 709.652 452.246 710.162 451.969 710.795 451.726 712.157 451.238 713.285 450.83 714.385 450.67 714.844 450.635 715.328 450.954 715.569 451.088L716.466 450.934C718.53 457.337 722.858 462.512 728.338 465.759L727.964 466.657C728.099 467.006 728.247 467.477 728.147 467.821 727.747 468.857 727.063 469.951 726.284 471.171 725.906 471.734 725.52 472.171 725.18 472.816 725.098 472.969 724.994 473.206 724.916 473.37 724.386 474.502 724.775 475.806 725.791 476.295 726.814 476.788 728.083 476.268 728.633 475.134 728.633 475.132 728.637 475.131 728.637 475.129L728.637 475.125C728.716 474.965 728.827 474.753 728.892 474.601 729.184 473.933 729.282 473.361 729.486 472.715 730.031 471.346 730.33 469.91 731.08 469.016 731.286 468.771 731.62 468.676 731.967 468.584L732.433 467.739C738.544 470.093 745.31 470.111 751.433 467.788 751.563 468.02 751.808 468.466 751.873 468.579 752.225 468.694 752.61 468.753 752.923 469.217 753.485 470.175 753.869 471.31 754.337 472.68 754.541 473.326 754.643 473.898 754.934 474.566 755.001 474.719 755.111 474.933 755.189 475.094 755.738 476.232 757.012 476.754 758.036 476.26 759.052 475.77 759.441 474.466 758.911 473.334 758.832 473.172 758.724 472.934 758.643 472.78 758.303 472.136 757.916 471.703 757.539 471.14 756.759 469.92 756.113 468.907 755.713 467.87 755.546 467.337 755.741 467.004 755.871 466.657 755.794 466.567 755.627 466.063 755.528 465.825 761.224 462.462 765.424 457.095 767.397 450.895 767.663 450.937 768.127 451.019 768.277 451.049 768.587 450.845 768.871 450.578 769.429 450.622 770.529 450.781 771.657 451.189 773.019 451.678 773.652 451.92 774.163 452.202 774.867 452.391 775.016 452.431 775.228 452.468 775.399 452.505 775.413 452.508 775.425 452.515 775.439 452.518 775.448 452.52 775.461 452.52 775.469 452.523 776.69 452.785 777.876 452.117 778.127 451.018 778.377 449.919 777.598 448.803 776.385 448.511 776.208 448.471 775.958 448.402 775.786 448.37 775.07 448.234 774.487 448.268 773.812 448.212 772.372 448.06 771.18 447.938 770.12 447.605 769.689 447.437 769.381 446.923 769.231 446.711L768.401 446.469C768.843 443.265 768.697 440.008 767.969 436.857 767.24 433.674 765.933 430.652 764.112 427.941 764.325 427.747 764.728 427.391 764.842 427.285 764.875 426.916 764.847 426.528 765.229 426.119 766.039 425.359 767.059 424.729 768.291 423.969 768.875 423.624 769.415 423.403 770.001 422.969 770.134 422.872 770.316 422.716 770.455 422.604 771.443 421.816 771.67 420.458 770.96 419.569 770.252 418.679 768.878 418.596 767.89 419.384 767.75 419.496 767.559 419.641 767.433 419.75 766.88 420.225 766.539 420.695 766.073 421.188 765.058 422.219 764.219 423.08 763.298 423.7 762.898 423.932 762.314 423.852 762.048 423.836L761.265 424.395C756.8 419.713 750.721 416.719 744.175 416.138 744.156 415.863 744.132 415.368 744.126 415.218 743.859 414.962 743.536 414.743 743.453 414.189 743.363 413.082 743.513 411.891 743.686 410.455 743.782 409.783 743.941 409.225 743.968 408.497 743.974 408.331 743.965 408.091 743.964 407.912 743.964 406.649 743.042 405.624 741.904 405.624Z" fill="#FFFFFF"/></g></g></g><g clip-path="url(#clip22)"><g clip-path="url(#clip23)"><g clip-path="url(#clip24)"><path d="M943.581 440.723C943.578 417.884 962.089 399.367 984.928 399.364 1007.77 399.361 1026.28 417.873 1026.29 440.712 1026.29 463.55 1007.78 482.067 984.939 482.07 984.937 482.07 984.936 482.07 984.934 482.07 962.097 482.07 943.584 463.559 943.581 440.723" fill="#FFFFFF"/><g clip-path="url(#clip25)"><path d="M983.445 475.034 964.375 466.631 963.314 478.631 984.286 485.298 983.453 475.04" fill="url(#fill26)"/></g><g clip-path="url(#clip27)"><path d="M968.109 428.606 978.817 428.606 978.817 437.742 976.275 437.742 976.275 433.853C976.275 432.299 975.016 431.039 973.461 431.039 971.907 431.039 970.648 432.299 970.648 433.853L970.648 437.742 968.106 437.742ZM965.97 448.606 981.859 455.609 980.764 442.209 982.845 442.209 982.845 437.742 981.303 437.742 981.303 428.606 982.845 428.606 982.845 425.981 974.273 417.595 974.273 417.006C974.273 416.559 973.911 416.197 973.464 416.197 973.018 416.197 972.656 416.559 972.656 417.006L972.656 417.595 964.084 425.981 964.084 428.606 965.628 428.606 965.628 437.742 964.084 437.742 964.084 442.22 966.534 442.22 965.978 448.609" fill="url(#fill28)"/></g><g clip-path="url(#clip29)"><path d="M965.036 459.134 982.778 466.956 982.5 463.701 965.278 456.114 965 459.134" fill="url(#fill30)"/></g><g clip-path="url(#clip31)"><path d="M964.572 464.392 983.248 472.623 982.97 469.367 964.828 461.373 964.55 464.392" fill="url(#fill32)"/></g><g clip-path="url(#clip33)"><path d="M965.77 450.856 965.492 453.878 982.32 461.278 982.042 458.023 965.759 450.848" fill="url(#fill34)"/></g><path d="M1019.46 421.792 1028.06 419.031C1028.03 418.97 1028 418.906 1027.97 418.847 1026.52 416.015 1024.79 413.333 1022.81 410.839L1014.74 415.006C1016.51 417.052 1018.07 419.273 1019.39 421.636 1019.41 421.684 1019.44 421.734 1019.46 421.784M1024.21 438.048 1033.16 438.689C1033.06 436.302 1032.78 433.926 1032.32 431.581L1023.3 431.889C1023.76 433.915 1024.06 435.974 1024.2 438.048" fill="#696566"/><path d="M985.556 480.115C963.834 480.115 946.158 462.442 946.158 440.72 946.158 418.997 963.839 401.322 985.556 401.322 993.07 401.314 1000.43 403.468 1006.75 407.528L1013.01 401C1004.95 395.401 995.371 392.406 985.556 392.419 958.931 392.419 937.264 414.086 937.264 440.723 937.264 467.359 958.931 489.015 985.556 489.015 1008.31 489.015 1027.41 473.181 1032.5 451.981L1024.06 449.056C1020.23 466.789 1004.43 480.12 985.562 480.12" fill="#696566"/><g clip-path="url(#clip35)"><path d="M1021.98 409.775C1019.54 406.857 1016.77 404.234 1013.72 401.961 1013.28 401.636 1012.83 401.322 1012.39 401.011L1006.11 407.528 983.239 431.314 1014.74 415.014 1022.82 410.847C1022.54 410.495 1022.26 410.131 1021.98 409.786" fill="url(#fill36)"/></g><g clip-path="url(#clip37)"><path d="M1033.22 440.337C1033.22 439.781 1033.18 439.225 1033.16 438.689L1024.21 438.048 983.248 435.109 1023.43 449.056 1031.88 451.987C1031.91 451.887 1031.93 451.789 1031.96 451.687 1032.8 448.093 1033.23 444.414 1033.23 440.723L1033.23 440.342" fill="url(#fill38)"/></g><g clip-path="url(#clip39)"><path d="M1031.9 429.503C1031.03 425.875 1029.74 422.36 1028.06 419.031L1019.46 421.792 983.867 433.223 1023.31 431.881 1032.34 431.573C1032.21 430.875 1032.06 430.184 1031.91 429.495" fill="url(#fill40)"/></g></g></g></g><text fill="#444444" font-family="Roboto,Roboto_MSFontService,sans-serif" font-weight="400" font-size="24" transform="translate(246.993 266)">GRPC<tspan x="239.509" y="-1">ETCD</tspan><tspan x="687.031" y="0">JAEGER</tspan><tspan x="424.222" y="0">Prometheus</tspan><tspan x="-37.1667" y="260">OpenTracing</tspan><tspan x="227.64" y="260">NATS</tspan><tspan x="434.388" y="263">Kubernetes</tspan><tspan x="697.608" y="260">Harbor</tspan></text></g></svg>