<?xml version="1.0" encoding="UTF-8"?> <svg xmlns="http://www.w3.org/2000/svg" id="master-artboard" viewBox="0 0 100 100" x="0px" y="0px" style="enable-background:new 0 0 1400 980;" width="100px" height="100px"><defs><clipPath id="clip-path"><path d="M 10.44787 115.797432 H 44.91609 V 150.265652 H 10.44787 V 115.797432 Z" class="cls-1" transform="translate(-86.23538 58.9605) rotate(-45.21268)" style="fill: none;"></path></clipPath><clipPath id="clip-path-2"><path d="M 84.176231 122.634628 H 104.393852 V 142.852228 H 84.176231 V 122.634628 Z" class="cls-1" transform="translate(-66.34817 106.14533) rotate(-45.21268)" style="fill: none;"></path></clipPath><clipPath id="path-1"><path d="M 10.44787 115.797432 H 44.91609 V 150.265652 H 10.44787 V 115.797432 Z" class="cls-1" transform="translate(-86.23538 58.9605) rotate(-45.21268)" style="fill: none;"></path></clipPath><clipPath id="path-2"><path d="M 84.176231 122.634628 H 104.393852 V 142.852228 H 84.176231 V 122.634628 Z" class="cls-1" transform="translate(-66.34817 106.14533) rotate(-45.21268)" style="fill: none;"></path></clipPath><clipPath id="path-3"><path d="M 10.44787 115.797432 H 44.91609 V 150.265652 H 10.44787 V 115.797432 Z" class="cls-1" transform="translate(-86.23538 58.9605) rotate(-45.21268)" style="fill: none;"></path></clipPath><clipPath id="path-4"><path d="M 84.176231 122.634628 H 104.393852 V 142.852228 H 84.176231 V 122.634628 Z" class="cls-1" transform="translate(-66.34817 106.14533) rotate(-45.21268)" style="fill: none;"></path></clipPath></defs><rect id="ee-background" x="0" y="0" width="100" height="100" style="fill: white; fill-opacity: 0; pointer-events: none;"></rect><g transform="matrix(0.6666666158040364, 0, 0, 0.6666666158040364, 0.000008385756700590719, 0.0000010194451078859856)"><rect id="rect-1" x="0" y="0" width="150" height="150" style="fill: white; fill-opacity: 0; pointer-events: none;"></rect><g transform="matrix(0.4166666242811415, 0, 0, 0.4166666242811415, 0.000008385756700590719, 0.000004834142373510986)"><title>grpc-icon-color</title><path class="cls-2" d="M42.24145,232.21012a27.64474,27.64474,0,0,0,9.90446,8.19966,29.68838,29.68838,0,0,0,13.57878,3.08266,29.16759,29.16759,0,0,0,11.15129-1.902,19.35678,19.35678,0,0,0,7.41216-5.18185,19.98741,19.98741,0,0,0,4.06741-7.67553,34.27792,34.27792,0,0,0,1.24616-9.379v-11.0203h-.26207a23.66047,23.66047,0,0,1-10.23336,8.92107,31.56777,31.56777,0,0,1-12.72572,2.62337,33.09681,33.09681,0,0,1-12.52851-2.3613,31.8678,31.8678,0,0,1-10.16783-6.49356,29.87918,29.87918,0,0,1-6.82183-9.90582,31.08381,31.08381,0,0,1-2.493-12.463,32.60231,32.60231,0,0,1,2.362-12.46365,32.03764,32.03764,0,0,1,6.49356-10.10167,29.29043,29.29043,0,0,1,9.83961-6.7563,31.69824,31.69824,0,0,1,12.52916-2.42747,35.03485,35.03485,0,0,1,5.83774.52481,27.64439,27.64439,0,0,1,6.166,1.83717,28.40458,28.40458,0,0,1,11.74226,9.44582h.26207V158.47991h8.659V219.354a49.39188,49.39188,0,0,1-1.24682,10.62582,26.24742,26.24742,0,0,1-4.85364,10.36377,27.64164,27.64164,0,0,1-10.03616,7.87276q-6.42972,3.14687-16.79313,3.14751a42.17919,42.17919,0,0,1-16.39867-3.01647,38.11193,38.11193,0,0,1-13.1195-9.31548Zm1.57375-43.81765a23.50706,23.50706,0,0,0,1.77165,9.11694,23.95209,23.95209,0,0,0,4.85362,7.4783,23.47222,23.47222,0,0,0,7.21559,5.117,21.23314,21.23314,0,0,0,8.98722,1.902A24.06592,24.06592,0,0,0,83.173,205.51313a20.90078,20.90078,0,0,0,5.0515-7.41346,23.87834,23.87834,0,0,0,1.63993-9.70722A26.11948,26.11948,0,0,0,88.29,179.27419a21.90058,21.90058,0,0,0-4.59225-7.47831,22.19,22.19,0,0,0-7.34661-5.11635,23.91438,23.91438,0,0,0-9.70787-1.902,21.2528,21.2528,0,0,0-8.98723,1.902,23.537,23.537,0,0,0-7.21558,5.11637,24.00565,24.00565,0,0,0-4.85363,7.4783A23.52564,23.52564,0,0,0,43.8152,188.39247Z" style="fill: rgb(36, 75, 90);"></path><path class="cls-2" d="M133.5504,219.87819h-9.44584v-92.8847h28.59961q14.16875,0,22.36878,6.16595,8.19768,6.16863,8.19965,18.62965a23.21058,23.21058,0,0,1-6.10044,16.33383q-6.10111,6.62629-17.64547,7.67422l26.76376,44.081H174.74468l-25.45143-43.16246H133.55039Zm0-51.82144h16.79244a37.7485,37.7485,0,0,0,10.692-1.31168,19.85659,19.85659,0,0,0,7.019-3.47644,12.69564,12.69564,0,0,0,3.80467-5.11636,16.977,16.977,0,0,0,1.18066-6.36318,16.63069,16.63069,0,0,0-1.18066-6.23149,13.20231,13.20231,0,0,0-3.80467-5.18254,18.55567,18.55567,0,0,0-7.019-3.47644,39.69991,39.69991,0,0,0-10.692-1.24616H133.5504Z" style="fill: rgb(36, 75, 90);"></path><path class="cls-2" d="M202.5561,126.99349h27.02653q14.16776,0,22.36744,6.16595,8.19768,6.16863,8.19967,18.62965,0,12.46532-8.19966,18.69513-8.19969,6.23216-22.36744,6.23149h-17.58v43.16248h-9.4465Zm9.4465,41.06321h15.21872a37.75787,37.75787,0,0,0,10.692-1.31169,19.868,19.868,0,0,0,7.019-3.47642,12.7,12.7,0,0,0,3.804-5.11637A16.96408,16.96408,0,0,0,249.917,151.789a16.61762,16.61762,0,0,0-1.18064-6.23149,13.2072,13.2072,0,0,0-3.804-5.18254,18.56533,18.56533,0,0,0-7.019-3.47643,39.70992,39.70992,0,0,0-10.692-1.24618H212.0026Z" style="fill: rgb(36, 75, 90);"></path><path class="cls-2" d="M355,205.18494a36.02464,36.02464,0,0,1-5.83706,6.69077,36.89724,36.89724,0,0,1-7.93761,5.444,45.26993,45.26993,0,0,1-9.64239,3.60811,44.55578,44.55578,0,0,1-10.95539,1.3117,49.68787,49.68787,0,0,1-19.21862-3.673,46.107,46.107,0,0,1-25.5176-25.58251,53.85383,53.85383,0,0,1,0-39.09573,46.10138,46.10138,0,0,1,25.5176-25.58247,49.67637,49.67637,0,0,1,19.21862-3.67362,46.957,46.957,0,0,1,17.31795,3.4109,34.93253,34.93253,0,0,1,14.82429,11.283l-8.26454,6.166a22.61649,22.61649,0,0,0-3.93636-4.46052,28.73552,28.73552,0,0,0-5.706-3.93572,35.62594,35.62594,0,0,0-6.888-2.755,26.64912,26.64912,0,0,0-7.34723-1.0496,37.67944,37.67944,0,0,0-16.005,3.27991,36.34909,36.34909,0,0,0-12.0037,8.78934,38.66736,38.66736,0,0,0-7.54449,12.7919,45.83227,45.83227,0,0,0,0,30.56714,38.65064,38.65064,0,0,0,7.54449,12.79124,36.30433,36.30433,0,0,0,12.0037,8.79,37.63934,37.63934,0,0,0,16.005,3.27992,40.558,40.558,0,0,0,7.2811-.65518,30.24229,30.24229,0,0,0,7.08522-2.23024,26.80735,26.80735,0,0,0,6.55976-4.26462,31.61539,31.61539,0,0,0,5.70605-6.75564Z" style="fill: rgb(36, 75, 90);"></path><g class="cls-3" style="clip-path: url('#path-3');"><path d="M 3.740000009536743 108.66000366210938 L 3.309000015258789 112.47599792480469 L 3.309000015258789 108.66000366210938 L 3.740000009536743 108.66000366210938 Z" class="cls-4" style="fill: rgb(117, 202, 202);"></path><path d="M 4.310999870300293 108.66000366210938 L 3.309000015258789 117.5199966430664 L 3.309000015258789 112.47599792480469 L 3.740000009536743 108.66000366210938 L 4.310999870300293 108.66000366210938 Z" class="cls-5" style="fill: rgb(116, 203, 202);"></path><path d="M 4.880000114440918 108.66000366210938 L 3.309000015258789 122.56199645996094 L 3.309000015258789 117.5199966430664 L 4.310999870300293 108.66000366210938 L 4.880000114440918 108.66000366210938 Z" class="cls-5" style="fill: rgb(116, 203, 202);"></path><path d="M 5.449999809265137 108.66000366210938 L 3.309000015258789 127.6050033569336 L 3.309000015258789 122.56199645996094 L 4.880000114440918 108.66000366210938 L 5.449999809265137 108.66000366210938 Z" class="cls-6" style="fill: rgb(115, 203, 202);"></path><path d="M 6.019999980926514 108.66000366210938 L 3.309000015258789 132.6479949951172 L 3.309000015258789 127.6050033569336 L 5.449999809265137 108.66000366210938 L 6.019999980926514 108.66000366210938 Z" class="cls-6" style="fill: rgb(115, 203, 202);"></path><path d="M 6.590000152587891 108.66000366210938 L 3.309000015258789 137.69200134277344 L 3.309000015258789 132.6479949951172 L 6.019999980926514 108.66000366210938 L 6.590000152587891 108.66000366210938 Z" class="cls-7" style="fill: rgb(114, 201, 201);"></path><path d="M 7.159999847412109 108.66000366210938 L 3.309000015258789 142.73500061035156 L 3.309000015258789 137.69200134277344 L 6.590000152587891 108.66000366210938 L 7.159999847412109 108.66000366210938 Z" class="cls-7" style="fill: rgb(114, 201, 201);"></path><path d="M 7.729000091552734 108.66000366210938 L 3.309000015258789 147.7779998779297 L 3.309000015258789 142.73500061035156 L 7.159999847412109 108.66000366210938 L 7.729000091552734 108.66000366210938 Z" class="cls-8" style="fill: rgb(112, 202, 202);"></path><path d="M 8.298999786376953 108.66000366210938 L 3.309000015258789 152.8209991455078 L 3.309000015258789 147.7779998779297 L 7.729000091552734 108.66000366210938 L 8.298999786376953 108.66000366210938 Z" class="cls-8" style="fill: rgb(112, 202, 202);"></path><path d="M 8.869999885559082 108.66000366210938 L 3.365000009536743 157.37399291992188 L 3.309000015258789 157.3679962158203 L 3.309000015258789 152.8209991455078 L 8.298999786376953 108.66000366210938 L 8.869999885559082 108.66000366210938 Z" class="cls-9" style="fill: rgb(111, 202, 200);"></path><path d="M 9.439000129699707 108.66000366210938 L 3.930999994277954 157.4040069580078 L 3.628999948501587 157.4040069580078 L 3.365000009536743 157.37399291992188 L 8.869999885559082 108.66000366210938 L 9.439000129699707 108.66000366210938 Z" class="cls-10" style="fill: rgb(110, 200, 200);"></path><path d="M 10.008000373840332 108.66000366210938 L 4.500999927520752 157.4040069580078 L 3.930999994277954 157.4040069580078 L 9.439000129699707 108.66000366210938 L 10.008000373840332 108.66000366210938 Z" class="cls-10" style="fill: rgb(110, 200, 200);"></path><path d="M 10.579000473022461 108.66000366210938 L 5.071000099182129 157.4040069580078 L 4.500999927520752 157.4040069580078 L 10.008000373840332 108.66000366210938 L 10.579000473022461 108.66000366210938 Z" class="cls-11" style="fill: rgb(108, 201, 201);"></path><path d="M 11.14900016784668 108.66000366210938 L 5.640999794006348 157.4040069580078 L 5.071000099182129 157.4040069580078 L 10.579000473022461 108.66000366210938 L 11.14900016784668 108.66000366210938 Z" class="cls-12" style="fill: rgb(109, 201, 200);"></path><path d="M 11.718000411987305 108.66000366210938 L 6.210999965667725 157.4040069580078 L 5.640999794006348 157.4040069580078 L 11.14900016784668 108.66000366210938 L 11.718000411987305 108.66000366210938 Z" class="cls-13" style="fill: rgb(105, 199, 200);"></path><path d="M 12.288000106811523 108.66000366210938 L 6.779999732971191 157.4040069580078 L 6.210999965667725 157.4040069580078 L 11.718000411987305 108.66000366210938 L 12.288000106811523 108.66000366210938 Z" class="cls-13" style="fill: rgb(105, 199, 200);"></path><path d="M 12.857999801635742 108.66000366210938 L 7.349999904632568 157.4040069580078 L 6.779999732971191 157.4040069580078 L 12.288000106811523 108.66000366210938 L 12.857999801635742 108.66000366210938 Z" class="cls-14" style="fill: rgb(105, 200, 199);"></path><path d="M 13.428000450134277 108.66000366210938 L 7.920000076293945 157.4040069580078 L 7.349999904632568 157.4040069580078 L 12.857999801635742 108.66000366210938 L 13.428000450134277 108.66000366210938 Z" class="cls-15" style="fill: rgb(104, 200, 199);"></path><path d="M 13.996999740600586 108.66000366210938 L 8.489999771118164 157.4040069580078 L 7.920000076293945 157.4040069580078 L 13.428000450134277 108.66000366210938 L 13.996999740600586 108.66000366210938 Z" class="cls-16" style="fill: rgb(103, 199, 199);"></path><path d="M 14.567000389099121 108.66000366210938 L 9.0600004196167 157.4040069580078 L 8.489999771118164 157.4040069580078 L 13.996999740600586 108.66000366210938 L 14.567000389099121 108.66000366210938 Z" class="cls-17" style="fill: rgb(101, 199, 199);"></path><path d="M 15.137999534606934 108.66000366210938 L 9.628999710083008 157.4040069580078 L 9.0600004196167 157.4040069580078 L 14.567000389099121 108.66000366210938 L 15.137999534606934 108.66000366210938 Z" class="cls-18" style="fill: rgb(100, 199, 199);"></path><path d="M 15.706999778747559 108.66000366210938 L 10.199000358581543 157.4040069580078 L 9.628999710083008 157.4040069580078 L 15.137999534606934 108.66000366210938 L 15.706999778747559 108.66000366210938 Z" class="cls-19" style="fill: rgb(99, 198, 198);"></path><path d="M 16.277000427246094 108.66000366210938 L 10.770000457763672 157.4040069580078 L 10.199000358581543 157.4040069580078 L 15.706999778747559 108.66000366210938 L 16.277000427246094 108.66000366210938 Z" class="cls-20" style="fill: rgb(96, 198, 198);"></path><path d="M 16.84600067138672 108.66000366210938 L 11.33899974822998 157.4040069580078 L 10.770000457763672 157.4040069580078 L 16.277000427246094 108.66000366210938 L 16.84600067138672 108.66000366210938 Z" class="cls-21" style="fill: rgb(96, 198, 197);"></path><path d="M 17.41699981689453 108.66000366210938 L 11.909000396728516 157.4040069580078 L 11.33899974822998 157.4040069580078 L 16.84600067138672 108.66000366210938 L 17.41699981689453 108.66000366210938 Z" class="cls-22" style="fill: rgb(95, 198, 197);"></path><path d="M 17.98699951171875 108.66000366210938 L 12.479000091552734 157.4040069580078 L 11.909000396728516 157.4040069580078 L 17.41699981689453 108.66000366210938 L 17.98699951171875 108.66000366210938 Z" class="cls-23" style="fill: rgb(92, 197, 196);"></path><path d="M 18.555999755859375 108.66000366210938 L 13.048999786376953 157.4040069580078 L 12.479000091552734 157.4040069580078 L 17.98699951171875 108.66000366210938 L 18.555999755859375 108.66000366210938 Z" class="cls-24" style="fill: rgb(90, 197, 196);"></path><path d="M 19.125999450683594 108.66000366210938 L 13.618000030517578 157.4040069580078 L 13.048999786376953 157.4040069580078 L 18.555999755859375 108.66000366210938 L 19.125999450683594 108.66000366210938 Z" class="cls-24" style="fill: rgb(90, 197, 196);"></path><path d="M 19.695999145507812 108.66000366210938 L 14.187999725341797 157.4040069580078 L 13.618000030517578 157.4040069580078 L 19.125999450683594 108.66000366210938 L 19.695999145507812 108.66000366210938 Z" class="cls-25" style="fill: rgb(87, 196, 196);"></path><path d="M 20.266000747680664 108.66000366210938 L 14.758000373840332 157.4040069580078 L 14.187999725341797 157.4040069580078 L 19.695999145507812 108.66000366210938 L 20.266000747680664 108.66000366210938 Z" class="cls-26" style="fill: rgb(88, 196, 195);"></path><path d="M 20.834999084472656 108.66000366210938 L 15.32800006866455 157.4040069580078 L 14.758000373840332 157.4040069580078 L 20.266000747680664 108.66000366210938 L 20.834999084472656 108.66000366210938 Z" class="cls-27" style="fill: rgb(85, 196, 195);"></path><path d="M 21.405000686645508 108.66000366210938 L 15.897000312805176 157.4040069580078 L 15.32800006866455 157.4040069580078 L 20.834999084472656 108.66000366210938 L 21.405000686645508 108.66000366210938 Z" class="cls-28" style="fill: rgb(83, 195, 194);"></path><path d="M 21.975000381469727 108.66000366210938 L 16.466999053955078 157.4040069580078 L 15.897000312805176 157.4040069580078 L 21.405000686645508 108.66000366210938 L 21.975000381469727 108.66000366210938 Z" class="cls-29" style="fill: rgb(82, 195, 194);"></path><path d="M 22.545000076293945 108.66000366210938 L 17.03700065612793 157.4040069580078 L 16.466999053955078 157.4040069580078 L 21.975000381469727 108.66000366210938 L 22.545000076293945 108.66000366210938 Z" class="cls-30" style="fill: rgb(80, 195, 194);"></path><path d="M 23.11400032043457 108.66000366210938 L 17.60700035095215 157.4040069580078 L 17.03700065612793 157.4040069580078 L 22.545000076293945 108.66000366210938 L 23.11400032043457 108.66000366210938 Z" class="cls-31" style="fill: rgb(80, 193, 192);"></path><path d="M 23.684999465942383 108.66000366210938 L 18.177000045776367 157.4040069580078 L 17.60700035095215 157.4040069580078 L 23.11400032043457 108.66000366210938 L 23.684999465942383 108.66000366210938 Z" class="cls-32" style="fill: rgb(75, 194, 192);"></path><path d="M 24.2549991607666 108.66000366210938 L 18.746999740600586 157.4040069580078 L 18.177000045776367 157.4040069580078 L 23.684999465942383 108.66000366210938 L 24.2549991607666 108.66000366210938 Z" class="cls-33" style="fill: rgb(76, 193, 192);"></path><path d="M 24.823999404907227 108.66000366210938 L 19.31599998474121 157.4040069580078 L 18.746999740600586 157.4040069580078 L 24.2549991607666 108.66000366210938 L 24.823999404907227 108.66000366210938 Z" class="cls-34" style="fill: rgb(71, 193, 190);"></path><path d="M 25.393999099731445 108.66000366210938 L 19.886999130249023 157.4040069580078 L 19.31599998474121 157.4040069580078 L 24.823999404907227 108.66000366210938 L 25.393999099731445 108.66000366210938 Z" class="cls-35" style="fill: rgb(70, 192, 190);"></path><path d="M 25.964000701904297 108.66000366210938 L 20.45599937438965 157.4040069580078 L 19.886999130249023 157.4040069580078 L 25.393999099731445 108.66000366210938 L 25.964000701904297 108.66000366210938 Z" class="cls-36" style="fill: rgb(67, 192, 190);"></path><path d="M 26.534000396728516 108.66000366210938 L 21.025999069213867 157.4040069580078 L 20.45599937438965 157.4040069580078 L 25.964000701904297 108.66000366210938 L 26.534000396728516 108.66000366210938 Z" class="cls-37" style="fill: rgb(64, 191, 189);"></path><path d="M 27.104000091552734 108.66000366210938 L 21.59600067138672 157.4040069580078 L 21.025999069213867 157.4040069580078 L 26.534000396728516 108.66000366210938 L 27.104000091552734 108.66000366210938 Z" class="cls-38" style="fill: rgb(59, 191, 189);"></path><path d="M 27.67300033569336 108.66000366210938 L 22.166000366210938 157.4040069580078 L 21.59600067138672 157.4040069580078 L 27.104000091552734 108.66000366210938 L 27.67300033569336 108.66000366210938 Z" class="cls-39" style="fill: rgb(57, 191, 188);"></path><path d="M 28.243000030517578 108.66000366210938 L 22.735000610351562 157.4040069580078 L 22.166000366210938 157.4040069580078 L 27.67300033569336 108.66000366210938 L 28.243000030517578 108.66000366210938 Z" class="cls-40" style="fill: rgb(52, 190, 189);"></path><path d="M 28.812999725341797 108.66000366210938 L 23.30500030517578 157.4040069580078 L 22.735000610351562 157.4040069580078 L 28.243000030517578 108.66000366210938 L 28.812999725341797 108.66000366210938 Z" class="cls-41" style="fill: rgb(50, 190, 187);"></path><path d="M 29.382999420166016 108.66000366210938 L 23.875999450683594 157.4040069580078 L 23.30500030517578 157.4040069580078 L 28.812999725341797 108.66000366210938 L 29.382999420166016 108.66000366210938 Z" class="cls-42" style="fill: rgb(45, 189, 187);"></path><path d="M 29.95199966430664 108.66000366210938 L 24.44499969482422 157.4040069580078 L 23.875999450683594 157.4040069580078 L 29.382999420166016 108.66000366210938 L 29.95199966430664 108.66000366210938 Z" class="cls-43" style="fill: rgb(36, 188, 187);"></path><path d="M 30.523000717163086 108.66000366210938 L 25.013999938964844 157.4040069580078 L 24.44499969482422 157.4040069580078 L 29.95199966430664 108.66000366210938 L 30.523000717163086 108.66000366210938 Z" class="cls-44" style="fill: rgb(33, 188, 185);"></path><path d="M 31.093000411987305 108.66000366210938 L 25.583999633789062 157.4040069580078 L 25.013999938964844 157.4040069580078 L 30.523000717163086 108.66000366210938 L 31.093000411987305 108.66000366210938 Z" class="cls-45" style="fill: rgb(24, 187, 185);"></path><path d="M 31.66200065612793 108.66000366210938 L 26.155000686645508 157.4040069580078 L 25.583999633789062 157.4040069580078 L 31.093000411987305 108.66000366210938 L 31.66200065612793 108.66000366210938 Z" class="cls-46" style="fill: rgb(15, 186, 185);"></path><path d="M 32.23099899291992 108.66000366210938 L 26.7239990234375 157.4040069580078 L 26.155000686645508 157.4040069580078 L 31.66200065612793 108.66000366210938 L 32.23099899291992 108.66000366210938 Z" class="cls-47" style="fill: rgb(3, 187, 184);"></path><path d="M 32.801998138427734 108.66000366210938 L 27.29400062561035 157.4040069580078 L 26.7239990234375 157.4040069580078 L 32.23099899291992 108.66000366210938 L 32.801998138427734 108.66000366210938 Z" class="cls-48" style="fill: rgb(6, 184, 182);"></path><path d="M 33.37200164794922 108.66000366210938 L 27.86400032043457 157.4040069580078 L 27.29400062561035 157.4040069580078 L 32.801998138427734 108.66000366210938 L 33.37200164794922 108.66000366210938 Z" class="cls-48" style="fill: rgb(6, 184, 182);"></path><path d="M 33.941001892089844 108.66000366210938 L 28.43400001525879 157.4040069580078 L 27.86400032043457 157.4040069580078 L 33.37200164794922 108.66000366210938 L 33.941001892089844 108.66000366210938 Z" class="cls-49" style="fill: rgb(3, 183, 181);"></path><path d="M 34.51100158691406 108.66000366210938 L 29.003999710083008 157.4040069580078 L 28.43400001525879 157.4040069580078 L 33.941001892089844 108.66000366210938 L 34.51100158691406 108.66000366210938 Z" class="cls-50" style="fill: rgb(4, 183, 180);"></path><path d="M 35.08100128173828 108.66000366210938 L 29.572999954223633 157.4040069580078 L 29.003999710083008 157.4040069580078 L 34.51100158691406 108.66000366210938 L 35.08100128173828 108.66000366210938 Z" class="cls-51" style="fill: rgb(0, 182, 181);"></path><path d="M 35.6510009765625 108.66000366210938 L 30.14299964904785 157.4040069580078 L 29.572999954223633 157.4040069580078 L 35.08100128173828 108.66000366210938 L 35.6510009765625 108.66000366210938 Z" class="cls-52" style="fill: rgb(3, 182, 180);"></path><path d="M 36.22100067138672 108.66000366210938 L 30.71299934387207 157.4040069580078 L 30.14299964904785 157.4040069580078 L 35.6510009765625 108.66000366210938 L 36.22100067138672 108.66000366210938 Z" class="cls-53" style="fill: rgb(5, 182, 178);"></path><path d="M 36.790000915527344 108.66000366210938 L 31.283000946044922 157.4040069580078 L 30.71299934387207 157.4040069580078 L 36.22100067138672 108.66000366210938 L 36.790000915527344 108.66000366210938 Z" class="cls-54" style="fill: rgb(1, 181, 177);"></path><path d="M 37.361000061035156 108.66000366210938 L 31.851999282836914 157.4040069580078 L 31.283000946044922 157.4040069580078 L 36.790000915527344 108.66000366210938 L 37.361000061035156 108.66000366210938 Z" class="cls-54" style="fill: rgb(1, 181, 177);"></path><path d="M 37.93000030517578 108.66000366210938 L 32.422000885009766 157.4040069580078 L 31.851999282836914 157.4040069580078 L 37.361000061035156 108.66000366210938 L 37.93000030517578 108.66000366210938 Z" class="cls-55" style="fill: rgb(0, 180, 177);"></path><path d="M 38.5 108.66000366210938 L 32.99300003051758 157.4040069580078 L 32.422000885009766 157.4040069580078 L 37.93000030517578 108.66000366210938 L 38.5 108.66000366210938 Z" class="cls-56" style="fill: rgb(0, 179, 176);"></path><path d="M 39.06999969482422 108.66000366210938 L 33.5620002746582 157.4040069580078 L 32.99300003051758 157.4040069580078 L 38.5 108.66000366210938 L 39.06999969482422 108.66000366210938 Z" class="cls-56" style="fill: rgb(0, 179, 176);"></path><path d="M 39.63999938964844 108.66000366210938 L 34.13199996948242 157.4040069580078 L 33.5620002746582 157.4040069580078 L 39.06999969482422 108.66000366210938 L 39.63999938964844 108.66000366210938 Z" class="cls-57" style="fill: rgb(0, 178, 175);"></path><path d="M 40.209999084472656 108.66000366210938 L 34.70100021362305 157.4040069580078 L 34.13199996948242 157.4040069580078 L 39.63999938964844 108.66000366210938 L 40.209999084472656 108.66000366210938 Z" class="cls-58" style="fill: rgb(0, 178, 174);"></path><path d="M 40.77899932861328 108.66000366210938 L 35.27199935913086 157.4040069580078 L 34.70100021362305 157.4040069580078 L 40.209999084472656 108.66000366210938 L 40.77899932861328 108.66000366210938 Z" class="cls-59" style="fill: rgb(0, 177, 174);"></path><path d="M 41.3489990234375 108.66000366210938 L 35.840999603271484 157.4040069580078 L 35.27199935913086 157.4040069580078 L 40.77899932861328 108.66000366210938 L 41.3489990234375 108.66000366210938 Z" class="cls-60" style="fill: rgb(0, 177, 173);"></path><path d="M 41.91899871826172 108.66000366210938 L 36.4109992980957 157.4040069580078 L 35.840999603271484 157.4040069580078 L 41.3489990234375 108.66000366210938 L 41.91899871826172 108.66000366210938 Z" class="cls-61" style="fill: rgb(0, 176, 172);"></path><path d="M 42.48899841308594 108.66000366210938 L 36.981998443603516 157.4040069580078 L 36.4109992980957 157.4040069580078 L 41.91899871826172 108.66000366210938 L 42.48899841308594 108.66000366210938 Z" class="cls-62" style="fill: rgb(0, 175, 172);"></path><path d="M 51.73500061035156 108.66000366210938 L 52.05400085449219 108.69499969482422 L 52.05400085449219 157.4040069580078 L 36.981998443603516 157.4040069580078 L 42.48899841308594 108.66000366210938 L 51.73500061035156 108.66000366210938 Z" class="cls-62" style="fill: rgb(0, 175, 172);"></path></g><g class="cls-63" style="clip-path: url('#path-4');"><path d="M 108.58100128173828 126.79900360107422 L 108.19200134277344 118.4469985961914 L 108.58100128173828 118.4469985961914 L 108.58100128173828 126.79900360107422 Z" class="cls-4" style="fill: rgb(117, 202, 202);"></path><path d="M 108.58100128173828 135.57400512695312 L 107.78399658203125 118.4469985961914 L 108.19200134277344 118.4469985961914 L 108.58100128173828 126.79900360107422 L 108.58100128173828 135.57400512695312 Z" class="cls-5" style="fill: rgb(116, 203, 202);"></path><path d="M 108.58100128173828 144.3489990234375 L 107.3740005493164 118.4469985961914 L 107.78399658203125 118.4469985961914 L 108.58100128173828 135.57400512695312 L 108.58100128173828 144.3489990234375 Z" class="cls-5" style="fill: rgb(116, 203, 202);"></path><path d="M 108.2979965209961 147.0399932861328 L 106.96600341796875 118.4469985961914 L 107.3740005493164 118.4469985961914 L 108.58100128173828 144.3489990234375 L 108.58100128173828 147.0399932861328 L 108.2979965209961 147.0399932861328 Z" class="cls-6" style="fill: rgb(115, 203, 202);"></path><path d="M 107.88800048828125 147.0399932861328 L 106.55699920654297 118.4469985961914 L 106.96600341796875 118.4469985961914 L 108.2979965209961 147.0399932861328 L 107.88800048828125 147.0399932861328 Z" class="cls-7" style="fill: rgb(114, 201, 201);"></path><path d="M 107.4800033569336 147.0399932861328 L 106.14900207519531 118.4469985961914 L 106.55699920654297 118.4469985961914 L 107.88800048828125 147.0399932861328 L 107.4800033569336 147.0399932861328 Z" class="cls-7" style="fill: rgb(114, 201, 201);"></path><path d="M 107.07099914550781 147.0399932861328 L 105.73999786376953 118.4469985961914 L 106.14900207519531 118.4469985961914 L 107.4800033569336 147.0399932861328 L 107.07099914550781 147.0399932861328 Z" class="cls-8" style="fill: rgb(112, 202, 202);"></path><path d="M 106.66300201416016 147.0399932861328 L 105.33100128173828 118.4469985961914 L 105.73999786376953 118.4469985961914 L 107.07099914550781 147.0399932861328 L 106.66300201416016 147.0399932861328 Z" class="cls-9" style="fill: rgb(111, 202, 200);"></path><path d="M 106.25399780273438 147.0399932861328 L 104.9219970703125 118.4469985961914 L 105.33100128173828 118.4469985961914 L 106.66300201416016 147.0399932861328 L 106.25399780273438 147.0399932861328 Z" class="cls-10" style="fill: rgb(110, 200, 200);"></path><path d="M 105.84500122070312 147.0399932861328 L 104.51399993896484 118.4469985961914 L 104.9219970703125 118.4469985961914 L 106.25399780273438 147.0399932861328 L 105.84500122070312 147.0399932861328 Z" class="cls-10" style="fill: rgb(110, 200, 200);"></path><path d="M 105.43699645996094 147.0399932861328 L 104.10399627685547 118.4469985961914 L 104.51399993896484 118.4469985961914 L 105.84500122070312 147.0399932861328 L 105.43699645996094 147.0399932861328 Z" class="cls-11" style="fill: rgb(108, 201, 201);"></path><path d="M 105.02799987792969 147.0399932861328 L 103.69599914550781 118.4469985961914 L 104.10399627685547 118.4469985961914 L 105.43699645996094 147.0399932861328 L 105.02799987792969 147.0399932861328 Z" class="cls-12" style="fill: rgb(109, 201, 200);"></path><path d="M 104.62000274658203 147.0399932861328 L 103.28700256347656 118.4469985961914 L 103.69599914550781 118.4469985961914 L 105.02799987792969 147.0399932861328 L 104.62000274658203 147.0399932861328 Z" class="cls-13" style="fill: rgb(105, 199, 200);"></path><path d="M 104.20999908447266 147.0399932861328 L 102.87899780273438 118.4469985961914 L 103.28700256347656 118.4469985961914 L 104.62000274658203 147.0399932861328 L 104.20999908447266 147.0399932861328 Z" class="cls-13" style="fill: rgb(105, 199, 200);"></path><path d="M 103.802001953125 147.0399932861328 L 102.47000122070312 118.4469985961914 L 102.87899780273438 118.4469985961914 L 104.20999908447266 147.0399932861328 L 103.802001953125 147.0399932861328 Z" class="cls-14" style="fill: rgb(105, 200, 199);"></path><path d="M 103.39299774169922 147.0399932861328 L 102.06099700927734 118.4469985961914 L 102.47000122070312 118.4469985961914 L 103.802001953125 147.0399932861328 L 103.39299774169922 147.0399932861328 Z" class="cls-15" style="fill: rgb(104, 200, 199);"></path><path d="M 102.98500061035156 147.0399932861328 L 101.6520004272461 118.4469985961914 L 102.06099700927734 118.4469985961914 L 103.39299774169922 147.0399932861328 L 102.98500061035156 147.0399932861328 Z" class="cls-16" style="fill: rgb(103, 199, 199);"></path><path d="M 102.57599639892578 147.0399932861328 L 101.24400329589844 118.4469985961914 L 101.6520004272461 118.4469985961914 L 102.98500061035156 147.0399932861328 L 102.57599639892578 147.0399932861328 Z" class="cls-17" style="fill: rgb(101, 199, 199);"></path><path d="M 102.16699981689453 147.0399932861328 L 100.83599853515625 118.4469985961914 L 101.24400329589844 118.4469985961914 L 102.57599639892578 147.0399932861328 L 102.16699981689453 147.0399932861328 Z" class="cls-18" style="fill: rgb(100, 199, 199);"></path><path d="M 101.75800323486328 147.0399932861328 L 100.427001953125 118.4469985961914 L 100.83599853515625 118.4469985961914 L 102.16699981689453 147.0399932861328 L 101.75800323486328 147.0399932861328 Z" class="cls-19" style="fill: rgb(99, 198, 198);"></path><path d="M 101.3489990234375 147.0399932861328 L 100.01799774169922 118.4469985961914 L 100.427001953125 118.4469985961914 L 101.75800323486328 147.0399932861328 L 101.3489990234375 147.0399932861328 Z" class="cls-20" style="fill: rgb(96, 198, 198);"></path><path d="M 100.94000244140625 147.0399932861328 L 99.60900115966797 118.4469985961914 L 100.01799774169922 118.4469985961914 L 101.3489990234375 147.0399932861328 L 100.94000244140625 147.0399932861328 Z" class="cls-21" style="fill: rgb(96, 198, 197);"></path><path d="M 100.53199768066406 147.0399932861328 L 99.19999694824219 118.4469985961914 L 99.60900115966797 118.4469985961914 L 100.94000244140625 147.0399932861328 L 100.53199768066406 147.0399932861328 Z" class="cls-22" style="fill: rgb(95, 198, 197);"></path><path d="M 100.12300109863281 147.0399932861328 L 98.79100036621094 118.4469985961914 L 99.19999694824219 118.4469985961914 L 100.53199768066406 147.0399932861328 L 100.12300109863281 147.0399932861328 Z" class="cls-22" style="fill: rgb(95, 198, 197);"></path><path d="M 99.71499633789062 147.0399932861328 L 98.38300323486328 118.4469985961914 L 98.79100036621094 118.4469985961914 L 100.12300109863281 147.0399932861328 L 99.71499633789062 147.0399932861328 Z" class="cls-23" style="fill: rgb(92, 197, 196);"></path><path d="M 99.30500030517578 147.0399932861328 L 97.9739990234375 118.4469985961914 L 98.38300323486328 118.4469985961914 L 99.71499633789062 147.0399932861328 L 99.30500030517578 147.0399932861328 Z" class="cls-24" style="fill: rgb(90, 197, 196);"></path><path d="M 98.89700317382812 147.0399932861328 L 97.56600189208984 118.4469985961914 L 97.9739990234375 118.4469985961914 L 99.30500030517578 147.0399932861328 L 98.89700317382812 147.0399932861328 Z" class="cls-24" style="fill: rgb(90, 197, 196);"></path><path d="M 98.48899841308594 147.0399932861328 L 97.15599822998047 118.4469985961914 L 97.56600189208984 118.4469985961914 L 98.89700317382812 147.0399932861328 L 98.48899841308594 147.0399932861328 Z" class="cls-25" style="fill: rgb(87, 196, 196);"></path><path d="M 98.08000183105469 147.0399932861328 L 96.74800109863281 118.4469985961914 L 97.15599822998047 118.4469985961914 L 98.48899841308594 147.0399932861328 L 98.08000183105469 147.0399932861328 Z" class="cls-26" style="fill: rgb(88, 196, 195);"></path><path d="M 97.6719970703125 147.0399932861328 L 96.33899688720703 118.4469985961914 L 96.74800109863281 118.4469985961914 L 98.08000183105469 147.0399932861328 L 97.6719970703125 147.0399932861328 Z" class="cls-27" style="fill: rgb(85, 196, 195);"></path><path d="M 97.26200103759766 147.0399932861328 L 95.93099975585938 118.4469985961914 L 96.33899688720703 118.4469985961914 L 97.6719970703125 147.0399932861328 L 97.26200103759766 147.0399932861328 Z" class="cls-28" style="fill: rgb(83, 195, 194);"></path><path d="M 96.85399627685547 147.0399932861328 L 95.52200317382812 118.4469985961914 L 95.93099975585938 118.4469985961914 L 97.26200103759766 147.0399932861328 L 96.85399627685547 147.0399932861328 Z" class="cls-28" style="fill: rgb(83, 195, 194);"></path><path d="M 96.44400024414062 147.0399932861328 L 95.11299896240234 118.4469985961914 L 95.52200317382812 118.4469985961914 L 96.85399627685547 147.0399932861328 L 96.44400024414062 147.0399932861328 Z" class="cls-29" style="fill: rgb(82, 195, 194);"></path><path d="M 96.03600311279297 147.0399932861328 L 94.7040023803711 118.4469985961914 L 95.11299896240234 118.4469985961914 L 96.44400024414062 147.0399932861328 L 96.03600311279297 147.0399932861328 Z" class="cls-30" style="fill: rgb(80, 195, 194);"></path><path d="M 95.62699890136719 147.0399932861328 L 94.2959976196289 118.4469985961914 L 94.7040023803711 118.4469985961914 L 96.03600311279297 147.0399932861328 L 95.62699890136719 147.0399932861328 Z" class="cls-31" style="fill: rgb(80, 193, 192);"></path><path d="M 95.21900177001953 147.0399932861328 L 93.88700103759766 118.4469985961914 L 94.2959976196289 118.4469985961914 L 95.62699890136719 147.0399932861328 L 95.21900177001953 147.0399932861328 Z" class="cls-64" style="fill: rgb(77, 194, 193);"></path><path d="M 94.80999755859375 147.0399932861328 L 93.47799682617188 118.4469985961914 L 93.88700103759766 118.4469985961914 L 95.21900177001953 147.0399932861328 L 94.80999755859375 147.0399932861328 Z" class="cls-65" style="fill: rgb(76, 194, 192);"></path><path d="M 94.4010009765625 147.0399932861328 L 93.06999969482422 118.4469985961914 L 93.47799682617188 118.4469985961914 L 94.80999755859375 147.0399932861328 L 94.4010009765625 147.0399932861328 Z" class="cls-66" style="fill: rgb(75, 192, 191);"></path><path d="M 93.99199676513672 147.0399932861328 L 92.66100311279297 118.4469985961914 L 93.06999969482422 118.4469985961914 L 94.4010009765625 147.0399932861328 L 93.99199676513672 147.0399932861328 Z" class="cls-34" style="fill: rgb(71, 193, 190);"></path><path d="M 93.58399963378906 147.0399932861328 L 92.25199890136719 118.4469985961914 L 92.66100311279297 118.4469985961914 L 93.99199676513672 147.0399932861328 L 93.58399963378906 147.0399932861328 Z" class="cls-35" style="fill: rgb(70, 192, 190);"></path><path d="M 93.17500305175781 147.0399932861328 L 91.84300231933594 118.4469985961914 L 92.25199890136719 118.4469985961914 L 93.58399963378906 147.0399932861328 L 93.17500305175781 147.0399932861328 Z" class="cls-36" style="fill: rgb(67, 192, 190);"></path><path d="M 92.76699829101562 147.0399932861328 L 91.43499755859375 118.4469985961914 L 91.84300231933594 118.4469985961914 L 93.17500305175781 147.0399932861328 L 92.76699829101562 147.0399932861328 Z" class="cls-67" style="fill: rgb(65, 192, 190);"></path><path d="M 92.35700225830078 147.0399932861328 L 91.0260009765625 118.4469985961914 L 91.43499755859375 118.4469985961914 L 92.76699829101562 147.0399932861328 L 92.35700225830078 147.0399932861328 Z" class="cls-37" style="fill: rgb(64, 191, 189);"></path><path d="M 91.9489974975586 147.0399932861328 L 90.61799621582031 118.4469985961914 L 91.0260009765625 118.4469985961914 L 92.35700225830078 147.0399932861328 L 91.9489974975586 147.0399932861328 Z" class="cls-38" style="fill: rgb(59, 191, 189);"></path><path d="M 91.54000091552734 147.0399932861328 L 90.20800018310547 118.4469985961914 L 90.61799621582031 118.4469985961914 L 91.9489974975586 147.0399932861328 L 91.54000091552734 147.0399932861328 Z" class="cls-68" style="fill: rgb(60, 191, 188);"></path><path d="M 91.13200378417969 147.0399932861328 L 89.80000305175781 118.4469985961914 L 90.20800018310547 118.4469985961914 L 91.54000091552734 147.0399932861328 L 91.13200378417969 147.0399932861328 Z" class="cls-39" style="fill: rgb(57, 191, 188);"></path><path d="M 90.72200012207031 147.0399932861328 L 89.39099884033203 118.4469985961914 L 89.80000305175781 118.4469985961914 L 91.13200378417969 147.0399932861328 L 90.72200012207031 147.0399932861328 Z" class="cls-40" style="fill: rgb(52, 190, 189);"></path><path d="M 90.31400299072266 147.0399932861328 L 88.98300170898438 118.4469985961914 L 89.39099884033203 118.4469985961914 L 90.72200012207031 147.0399932861328 L 90.31400299072266 147.0399932861328 Z" class="cls-41" style="fill: rgb(50, 190, 187);"></path><path d="M 89.90599822998047 147.0399932861328 L 88.5739974975586 118.4469985961914 L 88.98300170898438 118.4469985961914 L 90.31400299072266 147.0399932861328 L 89.90599822998047 147.0399932861328 Z" class="cls-69" style="fill: rgb(47, 190, 188);"></path><path d="M 89.49700164794922 147.0399932861328 L 88.16500091552734 118.4469985961914 L 88.5739974975586 118.4469985961914 L 89.90599822998047 147.0399932861328 L 89.49700164794922 147.0399932861328 Z" class="cls-42" style="fill: rgb(45, 189, 187);"></path><path d="M 89.08799743652344 147.0399932861328 L 87.75599670410156 118.4469985961914 L 88.16500091552734 118.4469985961914 L 89.49700164794922 147.0399932861328 L 89.08799743652344 147.0399932861328 Z" class="cls-70" style="fill: rgb(43, 189, 186);"></path><path d="M 88.67900085449219 147.0399932861328 L 87.3479995727539 118.4469985961914 L 87.75599670410156 118.4469985961914 L 89.08799743652344 147.0399932861328 L 88.67900085449219 147.0399932861328 Z" class="cls-43" style="fill: rgb(36, 188, 187);"></path><path d="M 88.27100372314453 147.0399932861328 L 86.93800354003906 118.4469985961914 L 87.3479995727539 118.4469985961914 L 88.67900085449219 147.0399932861328 L 88.27100372314453 147.0399932861328 Z" class="cls-44" style="fill: rgb(33, 188, 185);"></path><path d="M 87.86199951171875 147.0399932861328 L 86.52999877929688 118.4469985961914 L 86.93800354003906 118.4469985961914 L 88.27100372314453 147.0399932861328 L 87.86199951171875 147.0399932861328 Z" class="cls-45" style="fill: rgb(24, 187, 185);"></path><path d="M 87.4530029296875 147.0399932861328 L 86.12100219726562 118.4469985961914 L 86.52999877929688 118.4469985961914 L 87.86199951171875 147.0399932861328 L 87.4530029296875 147.0399932861328 Z" class="cls-71" style="fill: rgb(22, 186, 185);"></path><path d="M 87.04399871826172 147.0399932861328 L 85.71299743652344 118.4469985961914 L 86.12100219726562 118.4469985961914 L 87.4530029296875 147.0399932861328 L 87.04399871826172 147.0399932861328 Z" class="cls-72" style="fill: rgb(17, 186, 183);"></path><path d="M 86.63600158691406 147.0399932861328 L 85.30400085449219 118.4469985961914 L 85.71299743652344 118.4469985961914 L 87.04399871826172 147.0399932861328 L 86.63600158691406 147.0399932861328 Z" class="cls-47" style="fill: rgb(3, 187, 184);"></path><path d="M 86.22699737548828 147.0399932861328 L 84.8949966430664 118.4469985961914 L 85.30400085449219 118.4469985961914 L 86.63600158691406 147.0399932861328 L 86.22699737548828 147.0399932861328 Z" class="cls-48" style="fill: rgb(6, 184, 182);"></path><path d="M 85.81900024414062 147.0399932861328 L 84.48699951171875 118.4469985961914 L 84.8949966430664 118.4469985961914 L 86.22699737548828 147.0399932861328 L 85.81900024414062 147.0399932861328 Z" class="cls-48" style="fill: rgb(6, 184, 182);"></path><path d="M 85.40899658203125 147.0399932861328 L 84.0780029296875 118.4469985961914 L 84.48699951171875 118.4469985961914 L 85.81900024414062 147.0399932861328 L 85.40899658203125 147.0399932861328 Z" class="cls-48" style="fill: rgb(6, 184, 182);"></path><path d="M 85.0009994506836 147.0399932861328 L 83.66999816894531 118.4469985961914 L 84.0780029296875 118.4469985961914 L 85.40899658203125 147.0399932861328 L 85.0009994506836 147.0399932861328 Z" class="cls-73" style="fill: rgb(0, 183, 182);"></path><path d="M 84.59200286865234 147.0399932861328 L 83.26100158691406 118.4469985961914 L 83.66999816894531 118.4469985961914 L 85.0009994506836 147.0399932861328 L 84.59200286865234 147.0399932861328 Z" class="cls-49" style="fill: rgb(3, 183, 181);"></path><path d="M 84.18299865722656 147.0399932861328 L 82.85199737548828 118.4469985961914 L 83.26100158691406 118.4469985961914 L 84.59200286865234 147.0399932861328 L 84.18299865722656 147.0399932861328 Z" class="cls-50" style="fill: rgb(4, 183, 180);"></path><path d="M 83.77400207519531 147.0399932861328 L 82.44300079345703 118.4469985961914 L 82.85199737548828 118.4469985961914 L 84.18299865722656 147.0399932861328 L 83.77400207519531 147.0399932861328 Z" class="cls-51" style="fill: rgb(0, 182, 181);"></path><path d="M 83.36599731445312 147.0399932861328 L 82.03399658203125 118.4469985961914 L 82.44300079345703 118.4469985961914 L 83.77400207519531 147.0399932861328 L 83.36599731445312 147.0399932861328 Z" class="cls-51" style="fill: rgb(0, 182, 181);"></path><path d="M 82.95700073242188 147.0399932861328 L 81.625 118.4469985961914 L 82.03399658203125 118.4469985961914 L 83.36599731445312 147.0399932861328 L 82.95700073242188 147.0399932861328 Z" class="cls-51" style="fill: rgb(0, 182, 181);"></path><path d="M 82.54900360107422 147.0399932861328 L 81.21700286865234 118.4469985961914 L 81.625 118.4469985961914 L 82.95700073242188 147.0399932861328 L 82.54900360107422 147.0399932861328 Z" class="cls-52" style="fill: rgb(3, 182, 180);"></path><path d="M 82.13999938964844 147.0399932861328 L 80.80799865722656 118.4469985961914 L 81.21700286865234 118.4469985961914 L 82.54900360107422 147.0399932861328 L 82.13999938964844 147.0399932861328 Z" class="cls-52" style="fill: rgb(3, 182, 180);"></path><path d="M 81.73100280761719 147.0399932861328 L 80.4000015258789 118.4469985961914 L 80.80799865722656 118.4469985961914 L 82.13999938964844 147.0399932861328 L 81.73100280761719 147.0399932861328 Z" class="cls-53" style="fill: rgb(5, 182, 178);"></path><path d="M 81.322998046875 147.0399932861328 L 79.98999786376953 118.4469985961914 L 80.4000015258789 118.4469985961914 L 81.73100280761719 147.0399932861328 L 81.322998046875 147.0399932861328 Z" class="cls-54" style="fill: rgb(1, 181, 177);"></path><path d="M 80.91400146484375 147.0399932861328 L 79.98899841308594 127.18800354003906 L 79.98899841308594 118.4469985961914 L 79.98999786376953 118.4469985961914 L 81.322998046875 147.0399932861328 L 80.91400146484375 147.0399932861328 Z" class="cls-54" style="fill: rgb(1, 181, 177);"></path><path d="M 80.50599670410156 147.0399932861328 L 79.98899841308594 135.96299743652344 L 79.98899841308594 127.18800354003906 L 80.91400146484375 147.0399932861328 L 80.50599670410156 147.0399932861328 Z" class="cls-54" style="fill: rgb(1, 181, 177);"></path><path d="M 80.09600067138672 147.0399932861328 L 79.98899841308594 144.73800659179688 L 79.98899841308594 135.96299743652344 L 80.50599670410156 147.0399932861328 L 80.09600067138672 147.0399932861328 Z" class="cls-55" style="fill: rgb(0, 180, 177);"></path><path d="M 79.98899841308594 144.73800659179688 L 80.09600067138672 147.0399932861328 L 79.98899841308594 147.0399932861328 L 79.98899841308594 144.73800659179688 Z" class="cls-55" style="fill: rgb(0, 180, 177);"></path></g><path d="M 28.663000106811523 118.29499816894531 L 13.958999633789062 133.11000061035156 L 28.77199935913086 147.81399536132812 L 41.30500030517578 147.76800537109375 L 28.163000106811523 134.7310028076172 L 93.05799865722656 134.49099731445312 L 87.37000274658203 140.2169952392578 L 93.63700103759766 140.19400024414062 L 100.98999786376953 132.78599548339844 L 93.58200073242188 125.43499755859375 L 87.31600189208984 125.45700073242188 L 93.0459976196289 131.14199829101562 L 28.150999069213867 131.38299560546875 L 41.19499969482422 118.24800109863281 L 28.663000106811523 118.29499816894531 Z" class="cls-2" style="fill: rgb(36, 75, 90);"></path></g></g></svg> 