<svg xmlns="http://www.w3.org/2000/svg" viewBox="0 0 100 100" width="100" height="100"><path fill="none" pointer-events="none" d="M0 0h100v100H0z"/><path class="st0" d="M54.534 38.886a8.339 8.339 0 1 0 0 16.678 8.339 8.339 0 0 0 0-16.678zm-1.126 13.748a2.63 2.63 0 1 1 0-5.259 2.63 2.63 0 0 1 0 5.259zM53.044 58.652c-1.346-.55-3.116-.838-5.261-.856l-.942-.008c-.553-1.029-2.328-1.594-4.35-1.342 2.022-.252 3.797.313 4.35 1.342a1.476 1.476 0 0 1 .178.717c-.017 1.235-1.588 2.468-3.724 2.908l-.16.03-.144.027c-2.303.382-4.358-.294-4.777-1.525l-.772.261c-.48.162-4.696 1.667-5.09 4.62-.13.982.135 1.882.766 2.604.761.869 2.004 1.388 3.324 1.388.715 0 1.379-.158 1.919-.457.337-.186.697-.412 1.078-.65 1.305-.818 2.928-1.835 4.895-2.094.177-.023.47-.035.872-.035.438 0 .964.014 1.522.028.643.016 1.371.035 2.078.035 2.083 0 3.334-.162 4.183-.541 1.799-.804 2.692-2.37 2.388-4.188-.15-.907-.98-1.71-2.333-2.264zm-.574 5.29c-.781.35-2.196.431-3.664.431-1.29 0-2.623-.063-3.6-.063-.423 0-.78.012-1.037.046-2.855.375-4.996 2.103-6.424 2.892-.36.199-.82.297-1.303.297-1.43 0-3.053-.866-2.828-2.55.3-2.255 4.235-3.584 4.235-3.584.505.625 1.365 1.344 3.55 1.344.574 0 1.242-.05 2.018-.165 4.106-.605 4.355-3.522 4.355-3.522 4.432.037 6.226 1.308 6.35 2.057.113.676.113 2.029-1.652 2.817z" fill="none"/><path class="st0" d="M42.922 66.982c-1.069.411-2.016.997-2.836 1.51l-.037.023c.189.877.822 2.897 2.578 2.374.909-.27.927-1.382.73-2.397a9.84 9.84 0 0 0-.435-1.51zM47.504 66.526a282.36 282.36 0 0 1-.491-.013 62.74 62.74 0 0 0-1.508-.027c-.472 0-.697.016-.802.03a7.06 7.06 0 0 0-.631.114c.074.468.208 1.19.408 1.862.236.794.566 1.52 1.002 1.683.458.172 2.214.326 2.188-1.683a3.734 3.734 0 0 0-.01-.233 45.343 45.343 0 0 0-.156-1.733zM34.601 59.118a8.339 8.339 0 1 0 0 0zm-6.66-.324a2.63 2.63 0 1 1 0-5.259 2.63 2.63 0 0 1 0 5.259z" fill="none"/><path class="st1" d="M28.337 89.494c-1.427.326-5.628 2.61-9.257 3.303-3.63.694-6.77 1.06-7.87 1.468s-1.958 1.224.203 2.04c2.161.815 12.642 1.1 13.58 0 .938-1.102-.647-1.579-2.936-1.55-1.631.02-1.431-.548-1.428-.612 0 0 .102-.714 2.61-1.06 2.504-.346 13.58-1.387 13.377-2.57-.204-1.182-6.852-1.345-8.279-1.019zM23.271 97.76a2.172.632-12.278 0 1-1.987 1.079 2.172.632-12.278 0 1-2.256-.156 2.172.632-12.278 0 1 1.987-1.08 2.172.632-12.278 0 1 2.256.156zM18.4 97.755a2.284.612-4.551 0 1-2.228.79 2.284.612-4.551 0 1-2.325-.428 2.284.612-4.551 0 1 2.228-.791 2.284.612-4.551 0 1 2.325.429zM13.622 97.23a1.53.48-7.758 0 1-1.451.681 1.53.48-7.758 0 1-1.58-.268 1.53.48-7.758 0 1 1.45-.682 1.53.48-7.758 0 1 1.58.269zM10.602 96.765a1.478.387-8.26 0 1-1.407.596 1.478.387-8.26 0 1-1.518-.171 1.478.387-8.26 0 1 1.407-.596 1.478.387-8.26 0 1 1.518.171zM9.93 95.929a1.478.387-8.26 0 1-1.408.596 1.478.387-8.26 0 1-1.518-.171 1.478.387-8.26 0 1 1.407-.596 1.478.387-8.26 0 1 1.519.171zM9.563 95.011a1.285.337-8.261 0 1-1.224.518 1.285.337-8.261 0 1-1.32-.148 1.285.337-8.261 0 1 1.223-.518 1.285.337-8.261 0 1 1.32.148zM50.114 90.636c-2.488.122-8.115-.163-8.89 1.142-.775 1.305 2.284 1.794 7.096 1.386 4.812-.407 11.622-.938 11.908-2.406.285-1.468-1.264-1.182-1.428-2.12-.163-.938 1.713-.938 2.08-2.325.367-1.386-2.528-1.223-5.097-1.223-2.57 0-6.852.244-7.26 1.59-.407 1.346 1.958 1.346 3.63 1.672 1.672.326 1.183.938 1.183.938-.082.857-.734 1.224-3.222 1.346zM45.618 94.214a2.156.703 0 0 1-2.156.704 2.156.703 0 0 1-2.157-.704 2.156.703 0 0 1 2.157-.703 2.156.703 0 0 1 2.156.703zM50.45 94.062a1.438.642 0 0 1-1.437.642 1.438.642 0 0 1-1.438-.642 1.438.642 0 0 1 1.438-.643 1.438.642 0 0 1 1.438.643zM55.069 93.603a1.575.52 0 0 1-1.575.52 1.575.52 0 0 1-1.575-.52 1.575.52 0 0 1 1.575-.52 1.575.52 0 0 1 1.575.52zM58.097 93.022a1.147.55 0 0 1-1.147.55 1.147.55 0 0 1-1.147-.55 1.147.55 0 0 1 1.147-.55 1.147.55 0 0 1 1.147.55zM61.094 92.395a1.162.535 0 0 1-1.162.535 1.162.535 0 0 1-1.162-.535 1.162.535 0 0 1 1.162-.536 1.162.535 0 0 1 1.162.536zM9.22 77.357c0 .695 1.517 1.353 4.211 1.938-.192-1.395-.073-2.803.106-3.899-2.76.59-4.317 1.256-4.317 1.96zM88.712 75.555a6.07 6.07 0 0 1-1.544 2.368c-1.217 1.152-2.284 1.843-3.237 2.095 5.265-.74 8.39-1.662 8.39-2.661 0-.642-1.293-1.252-3.61-1.802z" fill="#231f20"/><path class="st2" d="M79.706 74.093c-.334-2.454-1.381-3.555-2.305-4.527-.86-.904-1.672-1.759-1.41-3.327.241-1.45 1.395-2.343 3.28-2.575-1.145-7.738-2.822-17.501-4.98-25.83-1.076-4.16-2.78-7.048-5.064-8.97-2.614 1.338-5.759 2.808-9.269 4.33a242.761 242.761 0 0 1-7.645 3.157c-2.005 2.15-4.196 4.27-5.538 4.875-.956.43-1.805.6-2.543.6-1.598 0-2.677-.8-3.2-1.514-.605.16-1.089.264-1.418.299-.393.041-.973.09-1.698.143.278.73.167 1.583-.367 2.227-.588.708-1.535 1.064-2.877 1.064-1.931 0-4.681-.737-8.358-2.222a75.443 75.443 0 0 0-1.493-.586c-.282.002-.563.003-.845.003h-.002c-3.513 0-6.258-.11-8.41-.287-2.357 4.88-1.332 10.29-.47 14.76.827 4.285 3.695 11.907 6.356 18.456.987 2.43 1.945 4.711 2.76 6.62 7.202.637 16.436 1.02 26.505 1.02 11.982 0 22.775-.543 30.375-1.41-.554-2.28-1.256-5.45-1.376-6.257l-.008-.05zM20.353 53.235a8.339 8.339 0 1 1 16.678 0 8.339 8.339 0 0 1-16.678 0zm22.274 17.654c-1.756.523-2.39-1.497-2.578-2.374l.037-.023c.82-.513 1.767-1.099 2.836-1.51.127.339.319.908.436 1.51.196 1.015.178 2.126-.73 2.397zm2.855-.714c-.436-.164-.766-.89-1.002-1.683-.2-.672-.334-1.394-.408-1.862a7.06 7.06 0 0 1 .63-.114c.106-.014.33-.03.803-.03.431 0 .954.013 1.508.027l.49.013c.044.379.097.929.158 1.733.006.081.008.158.01.233.025 2.009-1.73 1.855-2.189 1.683zm7.507-5.071c-.85.38-2.1.541-4.183.541-.707 0-1.435-.019-2.078-.035a63.253 63.253 0 0 0-1.522-.028c-.402 0-.695.012-.872.035-1.967.259-3.59 1.276-4.895 2.094-.381.238-.741.464-1.078.65-.54.299-1.204.457-1.919.457-1.32 0-2.563-.519-3.324-1.388-.631-.722-.896-1.622-.765-2.604.393-2.953 4.61-4.458 5.089-4.62l.772-.26a1.447 1.447 0 0 1-.059-.23c-.228-1.375 1.567-2.818 4.01-3.224.109-.018.218-.033.326-.046 2.022-.252 3.797.313 4.35 1.342l.942.008c2.145.018 3.915.306 5.26.856 1.354.553 2.183 1.357 2.334 2.264.304 1.819-.59 3.384-2.388 4.188zm1.545-9.54a8.339 8.339 0 1 1 0-16.678 8.339 8.339 0 0 1 0 16.677z" fill="#67cfe3"/><path d="M65.214 19.129l-.062-.109-.082-.104c-.078-.124-.383-.316-.407-.318l-.031-.017-.016-.008-.06-.026-.005-.002-.01-.004-.085-.03-.17-.058c-.113-.042-.24-.056-.362-.081-.123-.022-.253-.021-.38-.03a3.664 3.664 0 0 0-.385.032 2.78 2.78 0 0 0-1.309.633c-.35.295-.611.632-.824.966a7.011 7.011 0 0 0-.817 1.922 8.016 8.016 0 0 0-.247 1.42c-.018.172-.016.31-.02.403-.002.093.001.143.001.143l.261-.474c.166-.298.399-.722.685-1.21.29-.484.634-1.039 1.052-1.542.21-.25.44-.482.683-.662.244-.177.494-.299.744-.339.062-.008.125-.014.188-.02.065.008.128 0 .194.012.066.017.131.016.2.038l.16.043.05.023-.007-.006.009.001.005.008.007.004.015.006h-.007a.05.05 0 0 1-.01-.004c.008.005.015.017.022.033.034.062.06.184.072.318.015.278-.018.6-.07.903-.05.306-.116.603-.18.878-.13.55-.254 1.02-.336 1.351-.086.331-.13.527-.13.527s.142-.141.357-.413c.217-.271.509-.672.8-1.197.143-.263.288-.557.416-.888.125-.332.24-.698.276-1.143a1.927 1.927 0 0 0-.089-.762 1.07 1.07 0 0 0-.096-.217z"/><path d="M64.167 19.733l-.007-.003c.003.003.005.007.009.008l.003.001-.002-.001-.003-.005z"/><path class="st1" d="M13.495 35.065h.115a23.697 23.697 0 0 1-.115-.206v.206zM14.517 31.833c.246.494.507.865.703 1.115.094.127.18.219.235.283.057.064.09.096.09.096s-.033-.18-.096-.485c-.06-.305-.15-.736-.232-1.238-.04-.25-.077-.52-.096-.792-.015-.268-.015-.554.044-.764a.604.604 0 0 1 .105-.227.264.264 0 0 1 .118-.068l.04-.007.063-.013c.018-.003-.005.01-.007.012a.042.042 0 0 1-.021.005c-.004 0-.007 0-.01-.002l.007.004c.012.006.022.006.035.008.062.023.156.073.254.147.206.15.418.38.622.615.201.24.399.493.586.745.372.507.717 1.003 1.02 1.428.302.426.564.783.755 1.03.189.25.306.39.306.39l-.014-.13c-.014-.083-.027-.209-.06-.362a10.548 10.548 0 0 0-1.05-2.96 7.383 7.383 0 0 0-.57-.91 4.245 4.245 0 0 0-.833-.871 2.237 2.237 0 0 0-.667-.34 2.834 2.834 0 0 0-.221-.042l-.056-.007-.075-.001a1.924 1.924 0 0 0-.288.024l-.062.017-.063.017-.083.024-.024.01-.048.023a1.4 1.4 0 0 0-.652.562c-.146.244-.203.49-.224.707-.041.44.045.793.132 1.114a5.4 5.4 0 0 0 .337.843z" fill="#231f20"/><path class="st3" d="M18.362 83.058c1.955 0 3.332-1.064 4.298-2.445a288.356 288.356 0 0 1-4.65-11.43c-.467.397-1.006.997-1.59 1.902-1.453 2.252-2.65 7.493-1.143 10.26.629 1.153 1.638 1.713 3.085 1.713zM87.38 70.073c-1.147-2.965-3.584-5.07-5.927-5.119l-.084-.007c-.004 0-.454-.068-1.059-.068-1.276 0-2.843.272-3.06 1.57-.15.9.244 1.36 1.077 2.237.952 1 2.255 2.371 2.645 5.234.447 3.278 1.248 4.941 2.379 4.941.528 0 1.492-.316 3.085-1.825 1.961-1.858 1.773-4.815.943-6.963z" fill="#dfcaa3"/><path d="M30.57 56.164a2.63 2.63 0 0 1-2.63 2.63 2.63 2.63 0 0 1-2.629-2.63 2.63 2.63 0 0 1 2.63-2.629 2.63 2.63 0 0 1 2.629 2.63zM56.037 50.004a2.63 2.63 0 0 1-2.63 2.63 2.63 2.63 0 0 1-2.629-2.63 2.63 2.63 0 0 1 2.63-2.629 2.63 2.63 0 0 1 2.629 2.63z" class="st1" fill="#231f20"/><path class="st4" d="M20.808 26.79c2.052.555 4.372.835 6.895.835 4.055 0 12.664-.787 24.765-6.063l.272-.12a7.25 7.25 0 0 1 .167-1.993c.268-1.22.8-2.254 1.452-2.94-.126-.467-.23-.81-.301-.983-1.397-.744-12.908-5.032-18.912-5.032-.6 0-1.123.044-1.556.133-5.321 1.086-13.406 10.335-13.696 11.647-.087.567-.06 2.348.003 4.271l.911.246zM20.704 39.926c-.29-.06-.453-.08-.52-.085a2.238 2.238 0 0 1-2.332-1.832 2.237 2.237 0 0 1-.032-.34c-.604.342-1.208.712-1.773 1.103l-1.005.696-.74-.974a25.975 25.975 0 0 1-2.2-3.508c-1.78.84-3.172 1.76-3.512 2.63-.064.165-.038.253.029.351.29.426 2.015 1.727 12.085 1.96zM41.615 37.075a2.237 2.237 0 0 1 2.74.265c.112-.018.303-.066.585-.193 1.102-.524 5.079-4.769 8.1-8.404.109-.131.23-.245.36-.344-6.905 2.983-16.551 6.243-25.736 6.243-1.477 0-2.878-.086-4.18-.254l.202.594-1.148.44c-.009.003-.206.08-.537.216 1.479.346 3.478 1.025 5.988 2.039 4.595 1.855 6.352 1.926 6.792 1.9a2.236 2.236 0 0 1 2.026-.028 73.349 73.349 0 0 0 2.673-.21 8.41 8.41 0 0 0 1.104-.227 2.235 2.235 0 0 1 1.03-2.037zM68.36 23.43c-.335 1.994-.978 4.183-1.405 4.78l-.4.56a94.97 94.97 0 0 0 4.8-2.489c4.77-2.674 5.364-3.846 5.432-4.141.045-.194-.003-.253-.023-.279-.052-.065-.387-.39-1.894-.39-1.646 0-3.951.377-6.357.899-.042.343-.093.696-.154 1.06zM66.5 28.797l-.688-.056a41.236 41.236 0 0 0-2.989-.103c-1.78 0-4.125.108-6.05.564a2.235 2.235 0 0 1-.294 2.399c-.471.568-1.268 1.514-2.223 2.6 1.693-.687 3.44-1.419 5.194-2.179 2.571-1.115 4.942-2.2 7.05-3.225z" fill="#648c1a"/><path class="st3" d="M52.978 22.733c-4.835 2.108-15.43 6.17-25.275 6.17-2.492 0-4.937-.26-7.228-.879.24.362.476.748.71 1.16A30 30 0 0 1 23 33.029c1.19.186 2.744.336 4.665.336 5.655 0 14.494-1.295 26.623-6.754.19-.598.444-1.347.758-2.18-.024.002-.049.006-.073.006-.13 0-.258-.014-.383-.041-.753-.166-1.31-.78-1.61-1.663z" fill="#dfcaa3"/><path class="st2" d="M13.61 35.065c.873 1.555 1.71 2.657 1.71 2.657 2.93-2.029 6.76-3.494 6.76-3.494s-.098-.289-.282-.76a28.952 28.952 0 0 0-.747-1.75 29.82 29.82 0 0 0-.442-.909 25.528 25.528 0 0 0-.26-.497c-.295-.55-.624-1.11-.981-1.646-1.176-1.763-2.667-3.263-4.336-3.263-.526 0-1.07.15-1.628.487-3.067 1.854-1.484 6.1.091 8.969l.115.206zm.438-5.189c.02-.218.078-.463.224-.707a1.4 1.4 0 0 1 .652-.562l.048-.022.024-.01.083-.025.063-.017.062-.017a1.924 1.924 0 0 1 .287-.024h.076l.056.008c.074.012.15.026.221.043.272.081.483.208.667.339.354.272.609.57.833.872.224.3.408.608.571.91a10.548 10.548 0 0 1 1.05 2.959c.032.153.045.279.059.362l.014.13s-.117-.14-.306-.39a35.53 35.53 0 0 1-.755-1.03c-.303-.425-.648-.92-1.02-1.428a15.751 15.751 0 0 0-.586-.745c-.204-.234-.416-.466-.622-.615a1.087 1.087 0 0 0-.254-.147c-.013-.002-.023-.002-.035-.008l-.008-.004a.037.037 0 0 0 .01.002.042.042 0 0 0 .022-.005c.002-.002.025-.015.007-.012l-.064.013-.039.007a.264.264 0 0 0-.118.068.604.604 0 0 0-.105.227c-.059.21-.059.496-.044.764.019.272.056.541.096.792.082.502.173.933.232 1.238.063.305.096.485.096.485s-.033-.032-.09-.096c-.055-.064-.141-.156-.235-.283a6.561 6.561 0 0 1-.703-1.115 5.4 5.4 0 0 1-.337-.843c-.087-.321-.173-.674-.132-1.114zM15.033 24.764v.64z" fill="#67cfe3"/><path class="st3" d="M56.125 15.623c.13 0 .258.013.383.041.938.206 1.571 1.109 1.785 2.36 1.787-2.51 3.736-3.78 5.82-3.78.878 0 1.649.208 2.295.608a81.628 81.628 0 0 0 1.799-2.26c-.826.15-2.554.376-2.554.376 6.535-2.404 6.01-8.94 6.01-8.94 0 1.127-3.381 3.832-3.381 3.832.15-.977-.376-2.254-.376-2.254C68.056 6.883 64 10.19 64 10.19c.3-.601.075-1.653.075-1.653-.225 1.202-2.028 1.653-2.028 1.653 1.127-1.352 3.23-8.49 1.652-8.94-1.577-.45-3.756 4.658-3.756 4.658-.075-1.202-.751-1.202-.751-1.202.3 3.756-2.704 6.76-2.704 6.76-.226-.75-1.428-1.126-1.428-1.126.386.836-.053 4.642-.188 5.721.398-.281.825-.437 1.253-.437z" fill="#dfcaa3"/><path d="M54.52 22.93c0 .002.003.004.004.005a.87.87 0 0 0 .1.094c.013.01.026.017.039.026.025.017.05.035.075.048a.517.517 0 0 0 .204.056c.043.002.086 0 .13-.007.198-.03.414-.153.63-.355.199-.462.411-.933.64-1.407.21-.434.422-.85.637-1.245.32-1.698-.11-3.094-.745-3.233a.492.492 0 0 0-.109-.012c-.652 0-1.6 1.135-1.97 2.824-.27 1.225-.145 2.315.172 2.924l.002.002c.057.11.121.204.19.28z"/><path class="st2" d="M64.162 19.725l-.009-.001.007.006.007.003-.005-.008zM64.189 19.743l-.015-.006-.007-.004.003.005.002.001a.05.05 0 0 0 .01.004h.007z" fill="#67cfe3"/><path class="st2" d="M64.113 15.523c-3.721 0-6.458 5.6-7.889 9.405a42.745 42.745 0 0 0-1.018 3.053c.18.036.356.097.525.179 2.168-.649 4.973-.8 7.092-.8 1.793 0 3.093.107 3.093.107.563-.789 3.83-11.944-1.803-11.944zm1.286 4.585c-.036.445-.151.81-.276 1.143a7.256 7.256 0 0 1-.417.888c-.29.525-.582.926-.799 1.197-.215.272-.358.413-.358.413s.045-.196.13-.527c.083-.332.207-.8.337-1.351.064-.275.13-.572.18-.878a4.17 4.17 0 0 0 .07-.903.925.925 0 0 0-.072-.318c-.007-.016-.014-.028-.022-.033h-.003c-.004-.002-.006-.006-.01-.009l-.05-.023-.16-.043c-.068-.022-.133-.021-.199-.038-.066-.011-.129-.004-.194-.011a5.234 5.234 0 0 0-.188.019c-.25.04-.5.162-.744.34-.243.18-.473.412-.683.661-.418.503-.763 1.058-1.052 1.543-.286.487-.519.91-.685 1.21l-.26.473s-.004-.05-.002-.143c.004-.093.002-.231.02-.403.027-.347.093-.84.247-1.42.157-.578.394-1.249.817-1.922.213-.334.475-.671.824-.966a2.78 2.78 0 0 1 1.309-.633c.127-.018.257-.027.385-.031.127.008.257.007.38.029.121.025.25.04.362.081l.17.058.085.03.01.004.005.002.06.026.016.008.031.017c.024.002.33.194.407.318l.082.104.062.109c.044.074.073.146.096.217.096.287.103.537.089.762z" fill="#67cfe3"/><path d="M44.232 40.475c.608 0 1.277-.163 1.988-.483 1.483-.667 5.101-4.3 9.22-9.256a.877.877 0 0 0 .2-.646.878.878 0 0 0-.315-.598.883.883 0 0 0-1.245.115c-1.793 2.157-6.826 7.938-8.56 8.762l-.025.011c-.338.152-.65.252-.93.295l-.659.104-.483-.46a.88.88 0 0 0-1.083-.104.878.878 0 0 0-.388.554.879.879 0 0 0 .118.667c.067.106.703 1.039 2.162 1.039zM35.83 40.669a.891.891 0 0 0-.416.103l-.26.137-.293.018a3.603 3.603 0 0 1-.211.006c-.825 0-2.854-.26-7.168-2.003-4.756-1.92-6.64-2.208-7.34-2.208-.134 0-.212.011-.248.017a.878.878 0 0 0-.568.367.877.877 0 0 0-.143.66.892.892 0 0 0 .917.726l.098-.007.098.009c.524.043 2.21.333 6.525 2.075 3.488 1.41 6.13 2.123 7.851 2.123.902 0 1.52-.193 1.837-.575a.877.877 0 0 0 .2-.646.878.878 0 0 0-.316-.598.874.874 0 0 0-.564-.204z"/><path class="st3" d="M47.772 59.068s-.25 2.917-4.355 3.522c-.776.115-1.444.165-2.019.165-2.184 0-3.044-.72-3.55-1.344 0 0-3.934 1.33-4.234 3.583-.225 1.685 1.398 2.551 2.828 2.551.483 0 .943-.098 1.303-.297 1.428-.789 3.569-2.517 6.424-2.892a8.615 8.615 0 0 1 1.037-.046c.977 0 2.31.063 3.6.063 1.468 0 2.883-.082 3.664-.43 1.765-.79 1.765-2.142 1.653-2.818-.125-.75-1.919-2.02-6.35-2.057z" fill="#dfcaa3"/><path class="st1" d="M42.99 61.47l.146-.026.16-.031c2.135-.44 3.706-1.673 3.723-2.908a1.452 1.452 0 0 0-.178-.717c-.553-1.029-2.328-1.594-4.35-1.342a8.036 8.036 0 0 0-.327.046c-2.442.406-4.237 1.849-4.009 3.223.013.079.033.156.059.23.42 1.23 2.474 1.907 4.777 1.525z" fill="#231f20"/></svg>
