<svg xmlns="http://www.w3.org/2000/svg" viewBox="0 0 100 100" width="100" height="100"><path fill="none" pointer-events="none" d="M0 0h100v100H0z"/><path fill="#E75225" d="M49.983 1.636c26.779.006 48.759 21.71 48.725 48.112-.034 26.804-21.924 48.207-49.285 48.187-26.75-.018-48.377-21.744-48.358-48.578.018-26.24 22.044-47.726 48.918-47.72zM35.18 18.534c.614 3.005.018 5.807-.89 8.563-.629 1.908-1.498 3.746-2.016 5.68-.855 3.187-1.826 6.393-2.181 9.653-.512 4.687 1.341 8.816 4.512 12.922L20.029 52.3c.026.458-.001.631.049.778 1.381 4.035 3.813 7.434 6.538 10.638.288.34.945.513 1.43.514 14.534.027 29.067.025 43.6.007.45-.001 1.052-.086 1.329-.375 3.114-3.255 5.496-6.963 6.985-11.633l-15.43 3.003c1.018-1.983 2.18-3.727 2.848-5.642 2.285-6.555 1.338-12.892-1.941-18.868-2.632-4.797-5.06-9.572-3.746-15.352-2.78 2.728-3.847 6.201-4.524 9.78-.667 3.526-1.06 7.103-1.576 10.68-.074-.108-.169-.187-.184-.28-.06-.376-.115-.754-.136-1.133-.313-5.859-1.465-11.504-3.894-16.895-1.43-3.174-3.007-6.418-1.533-10.204-.997.523-1.9 1.043-2.545 1.785-1.93 2.215-2.727 4.875-2.932 7.788-.176 2.489-.416 4.989-.88 7.436-.488 2.572-1.261 5.092-3 7.456-.701-5.049-.78-10.042-5.307-13.25zm37.472 50.122H27.07v7.872h45.582v-7.872zM36.108 80.594c-.038 6.555 6.678 11.439 14.979 11.084 6.878-.294 12.966-5.673 12.443-11.084H36.108z"/></svg>
